<svg xmlns="http://www.w3.org/2000/svg" xmlns:xlink="http://www.w3.org/1999/xlink" xmlns:lucid="lucid" width="1802.6" height="1101"><g transform="translate(500 -29)" lucid:page-tab-id="0_0"><path d="M-1259.2 0h2582.4v1870.4h-2582.4z" fill="#fff"/><path d="M720 128h160v60H720z" stroke="#000" stroke-width="2" fill="#ffc374"/><use xlink:href="#a" transform="matrix(1,0,0,1,725,132.99267406893222) translate(55.05 30.025)"/><path d="M1100 128h160v60h-160z" stroke="#000" stroke-width="2" fill="#a3d977"/><use xlink:href="#b" transform="matrix(1,0,0,1,1105,132.99267406893222) translate(44.625 30.025)"/><path d="M560 400h100v60H560z" stroke="#000" stroke-width="2" fill="#ffc374"/><use xlink:href="#c" transform="matrix(1,0,0,1,565,405) translate(17.525 30.025)"/><path d="M700 400h100v60H700z" stroke="#000" stroke-width="2" fill="#ffc374"/><use xlink:href="#d" transform="matrix(1,0,0,1,705,405) translate(26.049999999999997 30.025)"/><path d="M693.33 430c0 14.73-11.94 26.67-26.66 26.67-14.73 0-26.67-11.94-26.67-26.67 0-14.73 11.94-26.67 26.67-26.67 14.72 0 26.66 11.94 26.66 26.67z" stroke="#000" stroke-width="2" fill="#c1e4f7" fill-opacity=".51"/><path d="M720 430c0 14.73-11.94 26.67-26.67 26.67-14.72 0-26.66-11.94-26.66-26.67 0-14.73 11.94-26.67 26.66-26.67 14.73 0 26.67 11.94 26.67 26.67z" stroke="#000" stroke-width="2" fill="#ffbbb1" fill-opacity=".51"/><path d="M920 400h100v60H920z" stroke="#000" stroke-width="2" fill="#ffc374"/><use xlink:href="#e" transform="matrix(1,0,0,1,925,405) translate(1.5999999999999943 30.025)"/><path d="M610.67 398.26L787.6 202.7" stroke="#000" stroke-width="2" fill="none"/><path d="M611.43 398.9l-.08.1h-2.7l1.3-1.43z"/><path d="M797.83 191.4l-6.13 13.68-6.88-6.22z" stroke="#000" stroke-width="2"/><path d="M750.23 398.03L795.7 207" stroke="#000" stroke-width="2" fill="none"/><path d="M751.2 398.23l-.17.77h-2.06l.3-1.23z"/><path d="M799.25 192.14l1.2 14.95-9-2.15z" stroke="#000" stroke-width="2"/><path d="M970.15 397.6l-1.56 1.25L810.85 204l1.56-1.26z"/><path d="M971.3 399h-2.6l-.12-.17 1.55-1.26zM814.6 199.68l-7.2 5.83-5.36-14z"/><path d="M816.3 199.6l-9.33 7.56L800 189zm-8.45 4.27l5.07-4.1-8.85-5.75z"/><path d="M1180.05 126l.28-5.8.85-5.6 1.2-4.66 1.43-3.88 1.6-3.25 1.7-2.7 1.76-2.3 1.8-1.9 1.85-1.6 1.87-1.28 1.87-1.04 1.87-.8 1.88-.6 1.88-.37 1.87-.18h1.88l1.88.2 1.88.37 1.87.58 1.87.8 1.87 1.04 1.86 1.3 1.83 1.58 1.82 1.9 1.76 2.3 1.7 2.72 1.6 3.25 1 2.72" stroke="#000" stroke-width="2" fill="none"/><path d="M1181.05 126.02l-.05.97h-2l.05-1.08z"/><path d="M1228.84 123.8l-6.75-13.4 9.15-1.4z" stroke="#000" stroke-width="2"/><path d="M800.04 126l.27-5.87.8-5.76 1.12-4.86 1.36-4.1 1.53-3.52 1.65-3 1.73-2.55 1.78-2.18 1.82-1.85 1.84-1.56 1.85-1.3 1.87-1.06 1.87-.86 1.88-.65 1.88-.47 1.87-.3L827 86l1.88.05 1.88.23 1.87.4 1.88.6 1.88.78 1.87 1 1.86 1.2 1.85 1.47 1.83 1.74 1.8 2.06 1.74 2.42 1.68 2.83 1.57 3.32L852 108l.2.72" stroke="#000" stroke-width="2" fill="none"/><path d="M801.04 126l-.04 1h-2l.05-1.08z"/><path d="M854.23 123.8l-6.5-13.53 9.18-1.24z" stroke="#000" stroke-width="2"/><path d="M1180 394.67V207.5" stroke="#000" stroke-width="2" fill="none"/><path d="M1181 395.67h-2v-1.03h2z"/><path d="M1180 192.23l4.64 14.26h-9.28z" stroke="#000" stroke-width="2"/><path d="M1130 396.67h100v60h-100z" stroke="#000" stroke-width="2" fill="#a3d977"/><use xlink:href="#f" transform="matrix(1,0,0,1,1135,401.66666666666674) translate(24.525 30.025)"/><path d="M1137.9 687.4h84.2v60h-84.2z" stroke="#000" stroke-width="2" fill="#83bbe5"/><use xlink:href="#g" transform="matrix(1,0,0,1,1142.8947368421052,692.4) translate(-0.3999999999999986 28.6)"/><path d="M1180 685.4V476.17" stroke="#000" stroke-width="2" fill="none"/><path d="M1181 686.4h-2v-1.03h2z"/><path d="M1180 460.9l4.64 14.27h-9.28z" stroke="#000" stroke-width="2"/><path d="M707.9 687.4h84.2v67.4h-84.2z" stroke="#000" stroke-width="2" fill="#83bbe5"/><use xlink:href="#h" transform="matrix(1,0,0,1,712.8947368421053,692.4000000000001) translate(0.09999999999999432 32.525)"/><path d="M750 685.4V479.5" stroke="#000" stroke-width="2" fill="none"/><path d="M751 686.4h-2v-1.03h2z"/><path d="M750 464.24l4.64 14.26h-9.28z" stroke="#000" stroke-width="2"/><path d="M567.9 687.4h84.2v67.4h-84.2z" stroke="#000" stroke-width="2" fill="#ff8f80"/><use xlink:href="#i" transform="matrix(1,0,0,1,572.8947368421053,692.4000000000001) translate(14.2 21.65)"/><use xlink:href="#j" transform="matrix(1,0,0,1,572.8947368421053,692.4000000000001) translate(21 43.25)"/><path d="M610 573.7v111.7h-2V479.5h2z"/><path d="M610 686.4h-2v-1.03h2zM613.64 478.5h-9.28l4.64-14.26z"/><path d="M615 479.5h-12l6-18.5zm-9.26-2h6.52L609 467.47z"/><path d="M784.47 500h3.1v2h-5.1v-2.92h2zm13.12 2h-6.03v-2h6.02zm10 0h-6v-2h6zm10.03 0h-6v-2h6zm10.02 0h-6v-2h6zm10.03 0h-6.02v-2h6.02zm10.02 0h-6v-2h6zm4.77 0h-.76v-2h.77zm35.32 0h-6.02v-2h6zm10 0h-6v-2h6zm10.04 0h-6.02v-2h6.02zm10.02 0h-6.02v-2h6.02zm10.02 0h-6v-2h6zm10.02 0h-6v-2h6zm6.57 0h-2.56v-2h.57v-3.46h2zm-66.7 0h-3.3v-2h3.3zm-93.3-6.93h-2v-6h2zm160-2.54h-2v-6h2zm-160-7.48h-2v-6h2zm160-2.54h-2v-3h2zm-160-7.47h-2v-6h2zm0-10.02h-2v-3h2z" fill="#666"/><path d="M784.47 462.03h-2V461h2zM948.1 478.5h-9.27l4.64-14.26z" fill="#666"/><path d="M949.48 479.5h-12.03l6.02-18.5zm-9.27-2h6.53l-3.26-10.03z" fill="#666"/><use xlink:href="#k" transform="matrix(1,0,0,1,852.4666666666668,490.2) translate(0 14.4)"/><path d="M1171.73 474.25l-120.37 211.77-1.74-.98L1170 473.26z"/><path d="M1051.38 686l-.23.4h-2.3l.8-1.4zM1175.38 475.17l-8.06-4.58 11.08-10.12z"/><path d="M1176.08 476.72l-10.45-5.94 14.37-13.1zm-7.07-6.32l5.68 3.22 2.12-10.33z"/><path d="M1000 687.4h100v60h-100z" stroke="#000" stroke-width="2" fill="#ff8f80"/><use xlink:href="#l" transform="matrix(1,0,0,1,1005,692.4) translate(-1.9250000000000043 28.6)"/><path d="M820 684.8h84.2v70H820z" stroke="#000" stroke-width="2" fill="#ff8f80"/><use xlink:href="#i" transform="matrix(1,0,0,1,825,689.8) translate(14.2 21.9)"/><use xlink:href="#m" transform="matrix(1,0,0,1,825,689.8) translate(7.550000000000001 43.5)"/><use xlink:href="#n" transform="matrix(1,0,0,1,825,689.8) translate(45.55 43.5)"/><path d="M862.55 682.46l-1.8.9-103.33-205.38 1.8-.9z"/><path d="M863.22 683.8H861l-.25-.47 1.8-.9zM762 474.55l-8.27 4.17-2.28-14.83z"/><path d="M763.7 474.83l-10.75 5.4L750 461zm-9.2 2.38l5.83-2.92-7.42-7.5z"/><path d="M934.33 398h-2v-3h2zm0-7.02h-2v-6h2zm0-10.02h-2v-6h2zm-160-.46h-2v-3h2zm0-7.02h-2v-6h2zm160-2.54h-2v-6h2zM774.9 360h-.57v3.46h-2V358h2.56zm159.43.92h-2V360h-3.1v-2h5.1zm-9.1-.92h-6.02v-2h6.03zm-10.03 0h-6v-2h6zm-10.02 0h-6v-2h6zm-10.02 0h-6v-2h6zm-10.02 0h-6.02v-2h6.02zm-50.12 0h-6v-2h6zM825 360h-6v-2h6zm-10.02 0h-6.02v-2h6.02zm-10.02 0h-6.02v-2h6.02zm-10.03 0h-6v-2h6zm-10.02 0h-6v-2h6zm90.2 0h-5.77v-2h5.78z" fill="#666"/><path d="M934.33 399h-2v-1.03h2zM773.33 395.76l-4.63-14.26h9.27z" fill="#666"/><path d="M773.33 399l-6-18.5h12.02zm-3.26-16.5l3.26 10.03 3.26-10.03z" fill="#666"/><use xlink:href="#o" transform="matrix(1,0,0,1,837.3333333333336,348.2) translate(0 14.4)"/><path d="M-85 880h40v40h-40z" stroke="#000" stroke-width="2" fill="#83bbe5"/><path d="M-85 940h40v40h-40z" stroke="#000" stroke-width="2" fill="#ffc374"/><path d="M-85 1000h40v40h-40z" stroke="#000" stroke-width="2" fill="#ff8f80"/><path d="M-85 1060h40v40h-40z" stroke="#000" stroke-width="2" fill="#a3d977"/><path d="M-35 930h240v60H-35z" stroke="#000" stroke-opacity="0" stroke-width="2" fill="#fff" fill-opacity="0"/><use xlink:href="#p" transform="matrix(1,0,0,1,-30.000000000000057,935) translate(0 30.025)"/><path d="M-35 870h240v60H-35z" stroke="#000" stroke-opacity="0" stroke-width="2" fill="#fff" fill-opacity="0"/><use xlink:href="#q" transform="matrix(1,0,0,1,-30.000000000000057,875) translate(0 30.025)"/><path d="M-35 1050h240v60H-35z" stroke="#000" stroke-opacity="0" stroke-width="2" fill="#fff" fill-opacity="0"/><use xlink:href="#r" transform="matrix(1,0,0,1,-30.000000000000057,1055) translate(0 30.025)"/><path d="M-35 990h240v60H-35z" stroke="#000" stroke-opacity="0" stroke-width="2" fill="#fff" fill-opacity="0"/><use xlink:href="#s" transform="matrix(1,0,0,1,-30.000000000000057,995) translate(0 30.025)"/><use xlink:href="#t" transform="matrix(1,0,0,1,-30.000000000000057,995) translate(51.6 30.025)"/><use xlink:href="#u" transform="matrix(1,0,0,1,-30.000000000000057,995) translate(72.55 30.025)"/><path d="M180 923.87V902.7M180 923.84v1.03" stroke="#000" stroke-width="2" fill="none"/><path d="M180 887.44l4.64 14.26h-9.28z" stroke="#000" stroke-width="2"/><path d="M140 884.2h240v40H140z" stroke="#000" stroke-opacity="0" stroke-width="2" fill="#fff" fill-opacity="0"/><use xlink:href="#v" transform="matrix(1,0,0,1,145,889.1999999999998) translate(64.1 18.15)"/><use xlink:href="#w" transform="matrix(1,0,0,1,145,889.1999999999998) translate(146.95 18.15)"/><path d="M180 989v-21.16" fill="none"/><path d="M181 989c0 .55-.45 1-1 1s-1-.45-1-1 .45-1 1-1 1 .45 1 1zm0-7.05c0 .55-.45 1-1 1s-1-.45-1-1c0-.56.45-1 1-1s1 .44 1 1zm0-7.06c0 .54-.45 1-1 1s-1-.46-1-1c0-.56.45-1 1-1s1 .44 1 1zm0-7.06c0 .55-.45 1-1 1s-1-.45-1-1c0-.56.45-1 1-1s1 .44 1 1z"/><path d="M180 988.97V990" stroke="#000" stroke-width="2" fill="none"/><path d="M180 952.57l4.64 14.27h-9.28z" stroke="#000" stroke-width="2"/><path d="M140 949.33h240v40H140z" stroke="#000" stroke-opacity="0" stroke-width="2" fill="#fff" fill-opacity="0"/><use xlink:href="#x" transform="matrix(1,0,0,1,145,954.3333333333333) translate(81.05 18.15)"/><use xlink:href="#w" transform="matrix(1,0,0,1,145,954.3333333333333) translate(130 18.15)"/><g class="lucid-layer" lucid:layer-id="JaXOG-Bv--2b" display="block"><path d="M-479 40h1766.8M-478.97 40H-480M1287.77 40h1.03M-479 280h1769.07M-478.97 280H-480M1290.04 280h1.03M-479 621.67h1766.8M-478.97 621.67H-480M1287.77 621.67h1.03M-479 840h1769.6M-478.97 840H-480M1290.57 840h1.03" stroke="#000" stroke-width="2" fill="none"/><path d="M-480 114h240v74h-240z" stroke="#000" stroke-opacity="0" stroke-width="2" fill="#fff" fill-opacity="0"/><use xlink:href="#y" transform="matrix(1,0,0,1,-475,118.99267406893222) translate(0 25.333333333333336)"/><use xlink:href="#z" transform="matrix(1,0,0,1,-475,118.99267406893222) translate(0 57.333333333333336)"/><use xlink:href="#A" transform="matrix(1,0,0,1,-475,118.99267406893222) translate(71.03703703703705 57.333333333333336)"/><path d="M-480 406.67h240v74h-240z" stroke="#000" stroke-opacity="0" stroke-width="2" fill="#fff" fill-opacity="0"/><use xlink:href="#y" transform="matrix(1,0,0,1,-475,411.66666666666674) translate(0 25.333333333333336)"/><use xlink:href="#z" transform="matrix(1,0,0,1,-475,411.66666666666674) translate(0 57.333333333333336)"/><use xlink:href="#B" transform="matrix(1,0,0,1,-475,411.66666666666674) translate(71.03703703703705 57.333333333333336)"/><path d="M-480 670.4h240v74h-240z" stroke="#000" stroke-opacity="0" stroke-width="2" fill="#fff" fill-opacity="0"/><g><use xlink:href="#y" transform="matrix(1,0,0,1,-475,675.4000000000001) translate(0 25.333333333333336)"/><use xlink:href="#z" transform="matrix(1,0,0,1,-475,675.4000000000001) translate(0 57.333333333333336)"/><use xlink:href="#C" transform="matrix(1,0,0,1,-475,675.4000000000001) translate(71.03703703703705 57.333333333333336)"/></g><path d="M-480 920h240v74h-240z" stroke="#000" stroke-opacity="0" stroke-width="2" fill="#fff" fill-opacity="0"/><g><use xlink:href="#y" transform="matrix(1,0,0,1,-475,925) translate(0 25.333333333333336)"/><use xlink:href="#z" transform="matrix(1,0,0,1,-475,925) translate(0 57.333333333333336)"/><use xlink:href="#D" transform="matrix(1,0,0,1,-475,925) translate(71.03703703703705 57.333333333333336)"/></g></g><g class="lucid-layer" lucid:layer-id="fF1OeNoGgl3B" display="block"><path d="M-20 128h160v60H-20z" stroke="#000" stroke-opacity=".1" stroke-width="2" fill="#ff8f80" fill-opacity=".1"/><use xlink:href="#E" transform="matrix(1,0,0,1,-15,132.99267406893222) translate(52.05 17.525)"/><use xlink:href="#F" transform="matrix(1,0,0,1,-15,132.99267406893222) translate(32.525 39.125)"/><path d="M60.04 126l.23-5.95.7-5.95 1.04-5.12 1.28-4.44 1.44-3.85 1.57-3.35 1.65-2.92 1.73-2.53 1.77-2.2 1.8-1.93 1.85-1.65 1.85-1.4 1.86-1.22 1.88-1 1.87-.82 1.87-.66 1.88-.48 1.87-.33 1.88-.17 1.87-.03 1.88.12 1.87.28 1.87.42 1.88.6 1.87.75 1.86.93 1.86 1.13 1.86 1.34 1.84 1.56 1.82 1.8 1.8 2.1 1.74 2.4 1.7 2.78 1.6 3.2 1.5 3.64 1.32 4.2.33 1.42" stroke="#000" stroke-opacity=".1" stroke-width="2" fill="none"/><path d="M61.04 126l-.04 1h-2l.04-1.07z" fill-opacity=".1"/><path d="M122.3 123.78l-6.26-13.64 9.2-1.07z" stroke="#000" stroke-opacity=".1" stroke-width="2" fill-opacity=".1"/><path d="M10 396.67h100v60H10z" stroke="#000" stroke-opacity=".1" stroke-width="2" fill="#ff8f80" fill-opacity=".1"/><use xlink:href="#G" transform="matrix(1,0,0,1,15,401.6666666666667) translate(2.5249999999999986 30.025)"/><path d="M60 394.67V207.5" stroke="#000" stroke-opacity=".1" stroke-width="2" fill="none"/><path d="M61 395.67h-2v-1.03h2z" fill-opacity=".1"/><path d="M60 192.23l4.64 14.26h-9.28z" stroke="#000" stroke-opacity=".1" stroke-width="2" fill-opacity=".1"/><path d="M80 687.4h84.2v67.4H80z" stroke="#000" stroke-opacity=".1" stroke-width="2" fill="#83bbe5" fill-opacity=".1"/><use xlink:href="#H" transform="matrix(1,0,0,1,84.99999999999997,692.4000000000001) translate(2.075000000000003 32.525)"/><path d="M121.85 685.43L66.8 475.56" stroke="#000" stroke-opacity=".1" stroke-width="2" fill="none"/><path d="M123.14 686.4h-2.07l-.2-.74 1.94-.5z" fill-opacity=".1"/><path d="M62.93 460.8l8.1 12.62-8.97 2.35z" stroke="#000" stroke-opacity=".1" stroke-width="2" fill-opacity=".1"/><path d="M-40 680h84.2v74.8H-40z" stroke="#000" stroke-opacity=".1" stroke-width="2" fill="#ff8f80" fill-opacity=".1"/><use xlink:href="#I" transform="matrix(1,0,0,1,-35,685) translate(14.2 14.4)"/><use xlink:href="#J" transform="matrix(1,0,0,1,-35,685) translate(21 36)"/><use xlink:href="#K" transform="matrix(1,0,0,1,-35,685) translate(5.574999999999999 57.6)"/><path d="M2.36 678.03l52.96-202.46" stroke="#000" stroke-opacity=".1" stroke-width="2" fill="none"/><path d="M3.33 678.26l-.2.74H1.08l.33-1.25z" fill-opacity=".1"/><path d="M59.18 460.8l.88 14.97-8.97-2.34z" stroke="#000" stroke-opacity=".1" stroke-width="2" fill-opacity=".1"/><path d="M-280 396.67h84.2v74.8H-280z" stroke="#000" stroke-opacity=".1" stroke-width="2" fill="#83bbe5" fill-opacity=".1"/><use xlink:href="#L" transform="matrix(1,0,0,1,-275,401.66666666666674) translate(2.575000000000003 36.74375)"/><path d="M-231.9 501h-5.9v-2h5.9zm9.86 0h-5.9v-2h5.9zm9.86 0h-5.9v-2h5.9zm9.86 0h-5.92v-2h5.92zm9.86 0h-5.92v-2h5.92zm9.85 0h-5.92v-2h5.9zm9.85 0h-5.9v-2h5.9zm9.86 0h-5.9v-2h5.9zm9.87 0h-5.92v-2h5.92zm9.86 0h-5.92v-2h5.93zm9.85 0h-5.9v-2h5.9zm5.52 0h-1.57v-2h1.57zm33.92 0h-5.92v-2h5.92zm9.86 0h-5.92v-2h5.92zm9.85 0h-5.9v-2h5.9zm9.86 0h-5.92v-2h5.9zm9.85 0h-5.92v-2h5.92zm9.86 0h-5.9v-2h5.9zm9.87 0h-5.92v-2h5.92zm9.85 0h-5.9v-2h5.9zm9.86 0h-5.9v-2h5.9zm9.86 0h-5.9v-2h5.9zm9.86 0h-5.92v-2H4.7zm9.86 0H8.64v-2h5.92zm9.85 0h-5.9v-2h5.9zm-128.14 0h-2.06v-2h2.06zm131.94-2.16h-2v-5.9h2zm-265.1-2.7h-2v-5.9h2zm265.1-7.16h-2v-5.9h2zm-265.1-2.7h-2v-5.9h2zm265.1-7.15h-2v-2.96h2zm-265.1-2.7h-2v-2.96h2z" fill-opacity=".1"/><path d="M-236.9 473.5h-2v-1.03h2zM31.84 475.17h-9.28l4.64-14.27z" fill-opacity=".1"/><path d="M33.2 476.17h-12l6-18.5zm-9.26-2h6.52l-3.26-10.03z" fill-opacity=".1"/><use xlink:href="#M" transform="matrix(1,0,0,1,-127.79999999999995,489.2) translate(0 14.4)"/><path d="M723.53 400h-3v-2h3zm-7 0h-5.98v-2h6zm-9.98 0h-6v-2h6zm-9.98 0h-6v-2h6zm-11.04-2h1.05v2h-3.05v-4.95h2zm0-6.94h-2v-6h2zm0-10h-2v-6h2zm-605.33-3.9h-2v-3h2zm605.33-6.08h-2v-6h2zm-605.33-.9h-2v-6h2zm605.33-9.1h-2v-5.4h.43v-1h1.57zm-604.86-4.4h-.47v3.5h-2v-5.5h2.47zm599.3 0h-6v-2h6zm-10 0H664v-2h5.98zm-9.98 0h-6v-2h6zm-10 0h-6v-2h6zm-9.98 0h-6v-2h6zm-10 0h-6v-2h6zm-9.98 0h-6v-2h6zm-10 0h-5.98v-2h6zm-9.98 0h-6v-2h6zm-10 0h-5.98v-2h6zm-9.97 0h-6v-2h6zm-10 0h-6v-2h6zm-10 0h-5.98v-2h6zm-9.98 0h-6v-2h6zm-10 0h-5.98v-2h6zm-9.97 0h-6v-2h6zm-10 0h-6v-2h6zm-31.95 0h-4v-2h4zm-8 0h-6v-2h6zm-9.98 0h-6v-2h6zm-10 0h-6v-2h6zm-9.98 0h-6v-2h6zm-10 0h-5.98v-2h6zm-9.98 0h-6v-2h6zm-10 0h-5.98v-2h6zm-9.97 0h-6v-2h6zm-10 0h-6v-2h6zm-10 0h-5.98v-2h6zm-9.98 0h-6v-2h6zm-10 0h-5.98v-2h6zm-9.97 0h-6v-2h6zm-10 0h-6v-2h6zm-9.98 0h-6v-2h6zm-10 0h-5.98v-2h5.98zm-9.98 0h-6v-2h6zm-10 0h-6v-2h6zm-9.98 0h-6v-2h6zm-10 0h-6v-2h6zm-9.98 0h-6v-2h6zm-10 0h-5.98v-2h6zm-9.98 0h-6v-2h6zm-10 0h-5.98v-2h6zm-9.97 0h-6v-2h6zm-10 0h-6v-2h6zm-10 0h-5.98v-2h6zm-9.98 0h-6v-2h6zm-10 0h-5.98v-2h6zm-9.97 0h-6v-2h6zm-10 0h-6v-2h6zm-9.98 0h-6v-2h6zm-10 0h-5.98v-2h5.98zm-9.98 0h-6v-2h6zm-10 0h-6v-2h6zm-9.98 0h-6v-2h6zm-10 0h-6v-2h6zm-9.98 0h-6v-2h6zm-10 0h-5.98v-2h6zm-9.98 0h-6v-2h6z" fill-opacity=".1"/><path d="M724.53 400h-1.02v-2h1.03zM79.2 392.43l-4.64-14.27h9.28z" fill-opacity=".1"/><path d="M79.2 395.67l-6-18.5h12zm-3.26-16.5l3.26 10.02 3.26-10.04z" fill-opacity=".1"/><use xlink:href="#N" transform="matrix(1,0,0,1,488.2000000000005,344.8666666666667) translate(0 14.4)"/><path d="M105 549h.32v2H103v-5.65h2zm10.3 2h-6v-2h6zm9.95 0h-5.98v-2h5.98zm9.96 0h-5.96v-2h5.97zm9.98 0h-5.98v-2h5.98zm9.96 0h-5.98v-2h5.98zm9.96 0h-5.97v-2h5.97zm9.97 0h-5.98v-2h5.97zm9.96 0h-5.98v-2h5.98zm9.96 0h-6v-2h6zm9.96 0h-5.98v-2h5.98zm9.96 0h-5.98v-2h5.98zm9.96 0h-5.98v-2h5.98zm9.97 0h-5.98v-2h5.98zm9.96 0h-5.97v-2h5.98zm9.97 0h-5.98v-2h5.97zm9.97 0h-5.98v-2h5.98zm9.96 0h-5.98v-2h5.98zm9.96 0h-5.98v-2h5.98zm9.96 0h-5.97v-2h5.97zm9.97 0h-6v-2h6zm9.95 0h-5.98v-2h5.98zm9.96 0h-5.96v-2h5.97zm9.98 0h-5.98v-2h5.98zm9.96 0h-5.98v-2h5.98zm39.85 0h-5.98v-2h5.97zm9.96 0h-5.98v-2h5.98zm9.96 0h-5.98v-2h5.98zm9.96 0h-5.98v-2h5.98zm9.97 0h-5.98v-2h5.98zm9.96 0h-5.97v-2h5.98zm9.97 0h-5.98v-2h5.97zm9.97 0h-5.98v-2h5.98zm9.96 0h-5.98v-2H464zm9.96 0h-5.98v-2h5.98zm9.97 0h-5.98v-2h5.98zm9.96 0h-6v-2h6zm9.95 0h-5.98v-2h5.98zm9.96 0h-5.96v-2h5.97zm9.98 0h-5.98v-2h5.98zm9.96 0h-5.98v-2h5.98zm9.96 0h-5.97v-2h5.97zm9.97 0h-5.98v-2h5.97zm9.96 0h-5.98v-2h5.98zm9.96 0h-5.98v-2h5.97zm9.96 0h-5.98v-2h5.98zm9.96 0h-5.98v-2h5.98zm9.96 0h-5.97v-2h5.98zm9.97 0h-5.98v-2h5.98zm9.96 0h-5.97v-2h5.98zm9.97 0h-5.98v-2h5.97zm9.97 0h-5.98v-2h5.98zm9.96 0h-5.98v-2h5.98zm9.96 0h-5.98v-2h5.98zm9.97 0h-5.98v-2h5.98zm9.96 0h-6v-2h6zm9.95 0h-5.98v-2h5.98zm9.96 0h-5.96v-2h5.97zm7.23 0h-3.23v-2h1.23v-2.74h2zm0-8.73h-2v-5.98h2zm-605.33-.9h-2v-6h2zm605.33-9.06h-2v-5.97h2zM105 531.4h-2v-5.98h2zm605.33-9.06h-2v-5.97h2zm-605.33-.9h-2v-5.98h2zm605.33-9.06h-2v-5.98h2zm-605.33-.9h-2v-6h2zm605.33-9.06h-2v-5.98h2zm-605.33-.9h-2v-6h2zm605.33-9.07h-2v-5.97h2zm-605.33-.9h-2v-5.98h2zm605.33-9.06h-2v-3h2zM105 481.57h-2v-5.98h2zm0-9.96h-2v-5.98h2zm0-9.96h-2v-3h2z" fill-opacity=".1"/><path d="M105 458.7h-2v-1.03h2zM713.97 478.5h-9.27l4.63-14.26z" fill-opacity=".1"/><path d="M715.35 479.5h-12.03l6-18.5zm-9.28-2h6.52l-3.27-10.03z" fill-opacity=".1"/><g><use xlink:href="#O" transform="matrix(1,0,0,1,344.8692028985512,539.2) translate(0 14.4)"/></g></g><g class="lucid-layer" lucid:layer-id="mz1Os7oTRxBb" display="block"><path d="M1005.8 500h3.54v2h-5.54v-2.54h2zm13.66 2h-6.07v-2h6.06zm10.13 0h-6.1v-2h6.1zm10.1 0h-6.06v-2h6.07zm10.14 0h-6.08v-2h6.08zm10.12 0h-6.07v-2h6.06zm4.84 0h-.8v-2h.8zm35.66 0h-6.07v-2h6.06zm10.13 0h-6.1v-2h6.1zm10.1 0h-6.06v-2h6.07zm10.14 0h-6.08v-2h6.08zm10.12 0h-6.07v-2h6.06zm-50.62 0h-3.54v-2h3.54zm54.13-2.54h-2v-6.08h2zm-138.67-4.05h-2v-6.06h2zm138.67-6.07h-2v-6.07h2zm-138.67-4.04h-2v-6.1h2zm138.67-6.1h-2v-3.03h2zm-138.67-4.04h-2v-6.07h2zm0-10.12h-2V462h2z" fill="#666"/><path d="M1005.8 462.03h-2V461h2zM1148.1 475.17h-9.27l4.64-14.27z" fill="#666"/><path d="M1149.48 476.17h-12.03l6.02-18.5zm-9.27-2h6.53l-3.26-10.03z" fill="#666"/><use xlink:href="#P" transform="matrix(1,0,0,1,1064.8000000000002,490.2) translate(0 14.4)"/><path d="M-231.2 571h-6v-2h6zm10.02 0h-6v-2h6zm10.02 0h-6v-2h6zm10.03 0h-6.02v-2h6.02zm10.02 0h-6.03v-2h6.02zm10 0h-6v-2h6zm10.03 0h-6v-2h6zm10.02 0h-6v-2h6zm10.03 0h-6.02v-2h6.02zm10.02 0h-6.02v-2h6.02zm10.02 0h-6v-2h6zm10.02 0h-6v-2h6zm10.02 0h-6v-2h6zm10.03 0h-6.03v-2h6.02zm10 0h-6v-2h6zm10.03 0h-6v-2h6zm10.02 0h-6v-2h6zm10.02 0h-6v-2h6zm10.03 0h-6.02v-2h6.02zm10.02 0h-6.02v-2h6.02zm10.02 0h-6v-2h6zm10.02 0h-6v-2h6zm10.02 0h-6v-2h6zm10.03 0h-6v-2h6zm10.03 0H3.3v-2h6.03zm10.02 0h-6v-2h6zm10.02 0h-6v-2h6zm10.02 0h-6.02v-2h6zm10.02 0H43.4v-2h6.02zm10.02 0h-6.02v-2h6.02zm10.02 0h-6v-2h6zm10.02 0h-6v-2h6zm10.02 0h-6v-2h6zm10.03 0H93.5v-2h6.03zm10.02 0h-6v-2h6zm10.02 0h-6v-2h6zm10.02 0h-6.02v-2h6zm10 0h-6v-2h6zm10.04 0h-6.02v-2h6.02zm10.02 0h-6v-2h6zm10.02 0h-6v-2h6zm10.02 0h-6v-2h6zm10.02 0h-6v-2h6zm10.03 0h-6.02v-2h6.02zm10.02 0h-6v-2h6zm10.02 0h-6.02v-2h6zm10 0h-6v-2h6zm10.03 0h-6v-2h6zm10.03 0h-6.02v-2h6.02zm10.02 0h-6v-2h6zm10.02 0h-6v-2h6zm10.02 0h-6v-2h6zm10.03 0h-6.02v-2h6.02zm10.02 0h-6.02v-2h6.02zm10.02 0h-6.02v-2h6zm10 0h-6v-2h6zm10.03 0h-6v-2h6zm10.03 0h-6.02v-2h6.02zm30.06 0h-6v-2h6zm10.02 0h-6v-2h6zm10.03 0h-6.02v-2h6.02zm10.02 0h-6.03v-2h6.02zm10 0h-6v-2h6zm10.03 0h-6v-2h6zm10.02 0h-6v-2h6zm10.03 0h-6.02v-2h6.02zm10.02 0h-6.02v-2h6.02zm10.02 0h-6v-2h6zm10.02 0h-6v-2h6zm10.02 0h-6v-2h6zm10.03 0h-6.03v-2h6.02zm10 0h-6v-2h6zm10.03 0h-6v-2h6zm10.02 0h-6v-2h6zm10.02 0h-6v-2h6zm10.03 0h-6.02v-2h6.02zm10.02 0h-6v-2h6zm10.02 0h-6v-2h6zm10.02 0h-6v-2h6zm10.02 0h-6v-2h6zm10.03 0h-6v-2h6zm10.03 0h-6v-2h6zm10.02 0h-6v-2h6zm10.02 0h-6v-2h6zm10.02 0h-6.02v-2h6zm10.02 0h-6.02v-2h6.02zm10.02 0h-6v-2h6zm10.02 0h-6v-2h6zm10.02 0h-6v-2h6zm10.02 0h-6v-2h6zm10.03 0h-6.02v-2h6.03zm10.02 0h-6v-2h6zm10.02 0h-6v-2h6zm10.02 0h-6.02v-2h6zm10 0h-6v-2h6zm10.04 0h-6.02v-2h6.02zm10.02 0h-6v-2h6zm10.02 0h-6v-2h6zm10.02 0h-6v-2h6zm10.03 0H775v-2h6.03zm10.02 0h-6.02v-2h6.02zm10.02 0h-6v-2h6zm10.02 0h-6.02v-2h6zm10 0h-6v-2h6zm10.04 0h-6.02v-2h6.02zm10.02 0h-6.02v-2h6.02zm10.02 0h-6v-2h6zm10.02 0h-6v-2h6zm10.02 0h-6v-2h6zm10.03 0h-6.02v-2h6.02zm10.02 0h-6.02v-2h6.02zm10.02 0h-6.02v-2h6zm10 0h-6v-2h6zm10.03 0h-6v-2h6zm10.03 0h-6.02v-2h6.02zm10.02 0h-6.02v-2h6.02zm10.02 0h-6v-2h6zm10.02 0h-6v-2h6zm10.02 0h-6v-2h6zm10.03 0h-6.02v-2h6.02zm10.02 0h-6.03v-2h6.02zm10 0h-6v-2h6zm10.03 0h-6v-2h6zm10.02 0h-6v-2h6zm10.03 0h-6.02v-2h6.02zm10.02 0h-6v-2h6zm10.02 0h-6v-2h6zm10.02 0h-6v-2h6zm10.02 0h-6v-2h6zm10.03 0h-6.03v-2h6.02zm10 0h-6v-2h6zm10.03 0h-6v-2h6zm10.02 0h-6v-2h6zm10.02 0h-6v-2h6zm10.03 0h-6.02v-2h6.02zm10.02 0h-6v-2h6zm10.02 0h-6v-2h6zm10.02 0h-6v-2h6zm10.02 0h-6v-2h6zm10.03 0h-6v-2h6zm10.03 0h-6v-2h6zm10.02 0h-6v-2h6zm4.38-1.63h-2v-6h2zm-1443.22-2.7h-2v-6h2zm1443.23-7.32h-2v-6h2zm-1443.22-2.7h-2v-6h2zm1443.23-7.32h-2v-6h2zm-1443.22-2.7h-2v-6.02h2zm1443.23-7.32h-2v-6h2zm-1443.22-2.7h-2v-6h2zm1443.23-7.3h-2v-6.03h2zm-1443.22-2.72h-2v-6h2zm1443.23-7.32h-2v-6h2zm-1443.22-2.7h-2v-6h2zm1443.23-7.32h-2v-6h2zm-1443.22-2.7h-2v-6h2zm1443.23-7.32h-2v-6h2zm-1443.22-2.7h-2v-6.02h2zm1443.23-7.32h-2v-6.02h2zm-1443.22-2.7h-2v-6.02h2zm1443.23-7.32h-2v-3h2zm-1443.22-2.7h-2v-3h2z" fill="#666" fill-opacity=".2"/><path d="M-236.9 473.5h-2v-1.03h2zM1209.97 475.17h-9.27l4.63-14.27z" fill="#666" fill-opacity=".2"/><path d="M1211.35 476.17h-12.03l6-18.5zm-9.28-2h6.52l-3.27-10.03z" fill="#666" fill-opacity=".2"/><use xlink:href="#Q" transform="matrix(1,0,0,1,342.03320380921735,559.2) translate(0 14.4)"/><path d="M1153 394.67h-2v-2.96h2zm0-6.9h-2v-5.94h2zm-153.33-7.27h-2v-2.96h2zm153.33-2.6h-2v-5.94h2zm-153.33-4.3h-2v-5.93h2zM1153 368h-2v-5.9h2zm-153.33-4.28h-2v-5.93h2zm153.33-5.58h-2v-1.47h-2.45v-2h4.45zm-8.4-1.47h-5.92v-2h5.93zm-9.87 0h-5.92v-2h5.93zm-9.87 0h-5.92v-2h5.92zm-9.87 0h-5.93v-2h5.92zm-9.88 0h-5.92v-2h5.92zm-50.95 0h-4.33v-2h4.33zm-8.28 0h-5.93v-2h5.92zm-9.88 0h-5.92v-2h5.92zm-9.87 0h-5.92v-2h5.92zm-9.87 0h-5.92v-2h5.92zm-9.87 0h-5.9v-2h5.9zm88.85 0h-2.08v-2h2.08z" fill="#666"/><path d="M1153 395.67h-2v-1.03h2zM998.67 395.76l-4.64-14.26h9.27z" fill="#666"/><path d="M998.67 399l-6.02-18.5h12.03zm-3.26-16.5l3.27 10.03 3.26-10.03z" fill="#666"/><use xlink:href="#R" transform="matrix(1,0,0,1,1054.166666666667,344.86666666666673) translate(0 14.4)"/></g><g class="lucid-layer" lucid:layer-id="7s1OD6vpws1H" display="block"><path d="M280 128h160v60H280z" stroke="#000" stroke-opacity=".1" stroke-width="2" fill="#a3d977" fill-opacity=".1"/><use xlink:href="#S" transform="matrix(1,0,0,1,285,132.99267406893222) translate(56.525 30.025)"/><path d="M360.04 126l.25-5.9.75-5.83 1.1-4.95 1.33-4.24 1.5-3.63 1.6-3.1 1.72-2.7 1.76-2.3 1.8-1.97 1.84-1.68 1.85-1.42 1.86-1.2 1.87-.97 1.88-.76 1.87-.6 1.88-.4 1.87-.26 1.87-.1 1.88.1 1.87.24 1.87.4 1.87.6 1.88.77 1.86.96 1.87 1.2 1.85 1.4 1.83 1.68 1.8 1.96 1.77 2.3 1.7 2.67 1.62 3.1 1.5 3.62 1.18 3.7" stroke="#000" stroke-opacity=".1" stroke-width="2" fill="none"/><path d="M361.04 126l-.04 1h-2l.04-1.08z" fill-opacity=".1"/><path d="M416.92 123.78l-6.4-13.56 9.2-1.18z" stroke="#000" stroke-opacity=".1" stroke-width="2" fill-opacity=".1"/><path d="M370 396.67h140v60H370z" stroke="#000" stroke-opacity=".1" stroke-width="2" fill="#ff8f80" fill-opacity=".1"/><use xlink:href="#T" transform="matrix(1,0,0,1,375,401.6666666666667) translate(3.125 30.025)"/><use xlink:href="#U" transform="matrix(1,0,0,1,375,401.6666666666667) translate(90.025 30.025)"/><path d="M439.64 394.73l-72.96-188.48" stroke="#000" stroke-opacity=".1" stroke-width="2" fill="none"/><path d="M441.07 395.67h-2.14l-.23-.6 1.86-.72z" fill-opacity=".1"/><path d="M361.17 192l9.47 11.64L362 207z" stroke="#000" stroke-opacity=".1" stroke-width="2" fill-opacity=".1"/><path d="M227.9 687.4h84.2v67.4h-84.2z" stroke="#000" stroke-opacity=".1" stroke-width="2" fill="#83bbe5" fill-opacity=".1"/><use xlink:href="#V" transform="matrix(1,0,0,1,232.89473684210532,692.4000000000001) translate(1.5999999999999943 32.525)"/><path d="M200 396.67h140v60H200z" stroke="#000" stroke-opacity=".1" stroke-width="2" fill="#83bbe5" fill-opacity=".1"/><use xlink:href="#W" transform="matrix(1,0,0,1,205,401.6666666666667) translate(11.42499999999999 30.025)"/><use xlink:href="#X" transform="matrix(1,0,0,1,205,401.6666666666667) translate(81.625 30.025)"/><path d="M270.4 394.75l82.2-188.8" stroke="#000" stroke-opacity=".1" stroke-width="2" fill="none"/><path d="M271.33 395.13l-.24.54h-2.2l.6-1.34z" fill-opacity=".1"/><path d="M358.7 191.96l-1.44 14.93-8.5-3.7z" stroke="#000" stroke-opacity=".1" stroke-width="2" fill-opacity=".1"/><path d="M270 685.4V476.17" stroke="#000" stroke-opacity=".1" stroke-width="2" fill="none"/><path d="M271 686.4h-2v-1.03h2z" fill-opacity=".1"/><path d="M270 460.9l4.64 14.27h-9.28z" stroke="#000" stroke-opacity=".1" stroke-width="2" fill-opacity=".1"/><path d="M388.95 687.4h102.1v67.4h-102.1z" stroke="#000" stroke-opacity=".1" stroke-width="2" fill="#ff8f80" fill-opacity=".1"/><use xlink:href="#Y" transform="matrix(1,0,0,1,393.9473684210527,692.4000000000001) translate(5.549999999999997 21.65)"/><use xlink:href="#Z" transform="matrix(1,0,0,1,393.9473684210527,692.4000000000001) translate(28.025 43.25)"/><path d="M440 685.4V476.17" stroke="#000" stroke-opacity=".1" stroke-width="2" fill="none"/><path d="M441 686.4h-2v-1.03h2z" fill-opacity=".1"/><path d="M440 460.9l4.64 14.27h-9.28z" stroke="#000" stroke-opacity=".1" stroke-width="2" fill-opacity=".1"/><path d="M-231.04 521h-6.05v-2h6.06zm10.07 0h-6.05v-2h6.05zm10.07 0h-6.04v-2h6.04zm10.07 0h-6.04v-2h6.04zm10.08 0h-6.05v-2h6.05zm10.07 0h-6.05v-2h6.05zm10.07 0h-6.05v-2h6.04zm10.06 0h-6.04v-2h6.04zm10.07 0h-6.04v-2h6.03zm10.08 0h-6.04v-2h6.05zm10.08 0h-6.04v-2h6.04zm10.07 0h-6.04v-2h6.05zm10.07 0h-6.04v-2h6.04zm10.08 0h-6.05v-2h6.05zm10.07 0h-6.04v-2h6.04zm10.07 0H-86v-2h6.04zm10.07 0h-6.03v-2h6.04zm10.1 0h-6.06v-2h6.05zm7.64 0h-3.62v-2h3.62zm32.64 0h-6.05v-2h6.05zm10.07 0h-6.05v-2h6.05zm10.07 0h-6.04v-2H.62zm10.07 0H4.64v-2h6.04zm10.07 0h-6.05v-2h6.05zm10.07 0H24.8v-2h6.04zm10.07 0h-6.03v-2h6.04zM51 521h-6.04v-2h6.04zm10.07 0H55v-2h6.05zm10.08 0h-6.05v-2h6.05zm10.07 0h-6.04v-2h6.04zm10.07 0h-6.04v-2h6.04zm10.07 0H95.3v-2h6.04zm10.08 0h-6.05v-2h6.05zm10.07 0h-6.05v-2h6.04zm10.06 0h-6.04v-2h6.04zm10.07 0h-6.04v-2h6.03zm10.08 0h-6.04v-2h6.05zm10.08 0h-6.04v-2h6.04zm10.07 0h-6.04v-2h6.05zm10.07 0h-6.04v-2h6.04zm10.08 0h-6.05v-2H192zm10.07 0h-6.05v-2h6.05zm10.07 0h-6.04v-2h6.04zm10.07 0h-6.03v-2h6.04zm10.1 0h-6.06v-2h6.05zm10.06 0h-6.05v-2h6.06zm-271.96 0h-.56v-2h.56zm276.47-1.52h-2v-6.04h2zm-483.76-2.7h-2v-6.05h2zm483.77-7.37h-2v-6.04h2zm-483.76-2.7h-2v-6.04h2zm483.77-7.36h-2v-6.05h2zm-483.76-2.7h-2v-6.05h2zm483.77-7.38h-2v-6.04h2zm-483.76-2.7h-2v-6.04h2zm483.77-7.37h-2v-3.03h2zm-483.76-2.7h-2v-3.03h2z" fill-opacity=".1"/><path d="M-236.9 473.5h-2v-1.03h2zM250.5 475.17h-9.27l4.64-14.27z" fill-opacity=".1"/><path d="M251.88 476.17h-12.03l6.02-18.5zm-9.27-2h6.53l-3.26-10.03z" fill-opacity=".1"/><use xlink:href="#aa" transform="matrix(1,0,0,1,-52.15756510864932,509.2) translate(0 14.4)"/><path d="M93.27 496.67h3.23v2h-5.23v-2.8h2zm13.28 2h-6.03v-2h6.03zm10.05 0h-6.03v-2h6.03zm10.05 0h-6.03v-2h6.03zm10.06 0h-6.02v-2h6.03zm10.06 0h-6.03v-2h6.03zm10.05 0h-6.02v-2h6.03zm10.07 0h-6.04v-2h6.04zm10.05 0h-6.03v-2h6.02zm10.05 0h-6.03v-2h6.03zm10.06 0H191v-2h6.03zm10.05 0h-6.03v-2h6.03zm10.05 0h-6.03v-2h6.03zm10.06 0h-6.05v-2h6.04zm10.04 0h-6.03v-2h6.04zm10.05 0h-6.04v-2h6.03zm10.04 0h-6.03v-2h6.04zm10.06 0h-6.03v-2h6.03zm10.05 0h-6.03v-2h6.03zm10.05 0h-6.03v-2h6.03zm10.06 0h-6.03v-2h6.03zm10.05 0h-6.02v-2h6.03zm10.06 0h-6.03v-2h6.03zm10.06 0h-6.04v-2h6.04zm30.16 0h-6.04v-2h6.04zm10.05 0h-6.03v-2h6.03zm10.05 0h-6.03v-2h6.03zm10.05 0H382v-2h6.03zm10.06 0h-6.04v-2h6.03zm6.63 0h-2.62v-2h.63v-3.4h2zm-311.46-6.83h-2v-6.03h2zm311.46-2.6h-2v-6.03h2zM93.27 481.8h-2v-6.04h2zm311.46-2.62h-2v-3h2zm-311.46-7.44h-2v-6.04h2zm0-10.06h-2v-3h2z" fill-opacity=".1"/><path d="M93.27 458.7h-2v-1.03h2zM408.37 475.17h-9.27l4.63-14.27z" fill-opacity=".1"/><path d="M409.75 476.17h-12.03l6-18.5zm-9.28-2H407l-3.27-10.03z" fill-opacity=".1"/><use xlink:href="#ab" transform="matrix(1,0,0,1,327.8096145124719,486.8666666666667) translate(0 14.4)"/><path d="M477.27 529h.52v2h-2.53v-5.47h2zm10.5 2h-6v-2h6zm9.98 0h-6v-2h6zm9.98 0h-6v-2h6zm9.98 0h-5.98v-2h6zm10 0h-6v-2h6zm9.96 0h-5.98v-2h5.98zm9.98 0h-5.98v-2h5.98zm9.98 0h-5.98v-2h5.98zm9.98 0h-5.98v-2h5.98zm9.98 0h-5.98v-2h5.98zm9.98 0h-5.98v-2h5.98zm9.98 0h-5.98v-2h5.98zm9.98 0h-5.98v-2h5.98zm9.98 0h-5.98v-2h5.98zm9.98 0h-5.98v-2h5.98zm9.98 0h-5.98v-2h5.98zm9.98 0h-6v-2h6zm9.98 0h-6v-2h6zm9.98 0h-6v-2h6zm9.98 0h-6v-2h6zm9.98 0h-6v-2h6zm9.98 0h-6v-2h6zm9.98 0h-6v-2h6zm9.98 0h-6v-2h6zm9.98 0h-6v-2h6zm9.98 0h-6v-2h6zm9.98 0h-6v-2h6zm9.98 0h-6v-2h6zm9.98 0h-6v-2h6zm9.98 0h-6v-2h6zm9.98 0h-6v-2h6zm9.98 0h-6v-2h6zm9.98 0h-6v-2h6zm9.98 0h-6v-2h6zm9.98 0h-6v-2h6zm9.98 0h-6v-2h6zm9.98 0h-6v-2h6zm9.98 0h-6v-2h6zm9.98 0h-6v-2h6zm9.98 0h-6v-2h6zm9.98 0h-6v-2h6zm9.77 0h-5.78v-2h5.78zm30.15 0h-6v-2h6zm9.98 0h-6v-2h6zm9.98 0h-6v-2h6zm9.98 0h-6v-2h6zm9.98 0h-6v-2h6zm9.98 0h-6v-2h6zm9.98 0h-6v-2h6zm9.98 0h-6v-2h6zm9.98 0h-6v-2h6zm9.98 0h-6v-2h6zm9.98 0h-6v-2h6zm9.98 0h-6v-2h6zm9.98 0h-6v-2h6zm9.98 0h-6v-2h6zm9.97 0h-6v-2h6zm9.97 0h-5.98v-2h5.97zm9.98 0h-5.98v-2h5.98zm9.98 0h-5.98v-2h5.98zm9.98 0h-5.97v-2h5.98zm10 0h-6v-2h6zm9.97 0h-5.98v-2h5.97zm9.98 0h-5.98v-2h5.98zm9.98 0h-5.98v-2h5.98zm9.98 0h-5.97v-2h5.98zm4.07-1.94h-2v-6h2zm-683.2-7.52h-2v-6h2zm683.2-2.46h-2v-6h2zm-683.2-7.52h-2v-6h2zm683.2-2.46h-2v-6h2zm-683.2-7.52h-2v-6h2zm683.2-2.46h-2v-6h2zm-683.2-7.52h-2v-6h2zm683.2-2.46h-2v-6h2zm-683.2-7.52h-2v-6h2zm683.2-2.46h-2v-3h2zm-683.2-7.52h-2v-6h2zm0-9.98h-2v-3h2z" fill-opacity=".1"/><path d="M477.27 458.7h-2v-1.03h2zM1164.1 475.17h-9.27l4.64-14.27z" fill-opacity=".1"/><path d="M1165.48 476.17h-12.03l6.02-18.5zm-9.27-2h6.53l-3.26-10.03z" fill-opacity=".1"/><use xlink:href="#ac" transform="matrix(1,0,0,1,896.7333333333331,519.2) translate(0 14.4)"/><path d="M493.27 509h1.32v2h-3.33v-4.75h2zm11.44 2h-6.06v-2h6.07zm10.14 0h-6.08v-2h6.08zm10.12 0h-6.07v-2h6.06zm10.12 0H529v-2h6.08zm10.13 0h-6.07v-2h6.08zm10.13 0h-6.07v-2h6.07zm10.12 0h-6.07v-2h6.07zm7.28 0h-3.23v-2h3.23zm33.22 0h-6.08v-2h6.08zm10.12 0H610v-2h6.07zm10.13 0h-6.08v-2h6.08zm10.12 0h-6.08v-2h6.08zm10.12 0h-6.07v-2h6.07zm10.13 0h-6.08v-2h6.07zm10.12 0h-6.08v-2h6.07zm10.1 0h-6.06v-2h6.07zm10.14 0h-6.08v-2h6.08zm10.12 0H691v-2h6.06zm10.12 0h-6.07v-2h6.08zm10.13 0h-6.07v-2h6.08zm7.97 0h-3.9v-2h1.9v-2.16h2zm-129.45 0h-1.1v-2h1.1zm129.45-8.2h-2v-6.1h2zm-232-.6h-2v-6.08h2zm232-9.54h-2v-6.07h2zm-232-.6h-2V486h2zm232-9.52h-2v-3.04h2zm-232-.6h-2v-6.06h2zm0-10.1h-2v-6.1h2zm0-10.14h-2v-3.03h2z" fill-opacity=".1"/><path d="M493.27 458.7h-2v-1.03h2zM728.9 478.5h-9.27l4.64-14.26z" fill-opacity=".1"/><path d="M730.28 479.5h-12.03l6.02-18.5zm-9.27-2h6.53l-3.26-10.03z" fill-opacity=".1"/><use xlink:href="#ad" transform="matrix(1,0,0,1,572.7333333333333,499.2) translate(0 14.4)"/><path d="M147.35 794.8h3.15v2h-5.15v-2.87h2zm13.18 2h-6.02v-2h6.03zm10.04 0h-6.02v-2h6.02zm9.8 0h-5.8v-2h5.8zm40.37 0h-6.02v-2h6.02zm10.03 0h-6.02v-2h6.02zm10.04 0h-6v-2h6zm6.6 0h-2.58v-2h.58v-3.44h2zm-100.05-6.9h-2v-6h2zm100.05-2.55h-2v-6.02h2zm-100.05-7.47h-2v-6.02h2zm100.05-2.57h-2v-3h2zm-100.05-7.46h-2v-6.02h2zm0-10.03h-2v-3h2z" fill-opacity=".1"/><path d="M147.35 756.83h-2v-1.03h2zM251.04 773.3h-9.28l4.64-14.26z" fill-opacity=".1"/><path d="M252.4 774.3h-12l6-18.5zm-9.26-2h6.52l-3.26-10.03z" fill-opacity=".1"/><g><use xlink:href="#ae" transform="matrix(1,0,0,1,180.37666666666684,785.0000000000001) translate(0 14.4)"/></g></g><g class="lucid-layer" lucid:layer-id="WI1ON1iQHkFm" display="block"><path d="M707.9 687.4h84.2v67.4h-84.2z" stroke="#000" stroke-width="2" fill="#83bbe5"/><use xlink:href="#af" transform="matrix(1,0,0,1,712.8947368421053,692.4000000000001) translate(1.9249999999999972 21.65)"/><use xlink:href="#ag" transform="matrix(1,0,0,1,712.8947368421053,692.4000000000001) translate(35.825 21.65)"/><use xlink:href="#ah" transform="matrix(1,0,0,1,712.8947368421053,692.4000000000001) translate(12.074999999999996 43.25)"/></g><g class="lucid-layer" lucid:layer-id="4h1OF1ylQRN1" display="block"><path d="M-20 128h160v60H-20z" stroke="#000" stroke-width="2" fill="#ff8f80"/><use xlink:href="#ai" transform="matrix(1,0,0,1,-15,132.99267406893222) translate(52.05 17.525)"/><use xlink:href="#aj" transform="matrix(1,0,0,1,-15,132.99267406893222) translate(32.525 39.125)"/><path d="M60.04 126l.23-5.95.7-5.95 1.04-5.12 1.28-4.44 1.44-3.85 1.57-3.35 1.65-2.92 1.73-2.53 1.77-2.2 1.8-1.93 1.85-1.65 1.85-1.4 1.86-1.22 1.88-1 1.87-.82 1.87-.66 1.88-.48 1.87-.33 1.88-.17 1.87-.03 1.88.12 1.87.28 1.87.42 1.88.6 1.87.75 1.86.93 1.86 1.13 1.86 1.34 1.84 1.56 1.82 1.8 1.8 2.1 1.74 2.4 1.7 2.78 1.6 3.2 1.5 3.64 1.32 4.2.33 1.42" stroke="#000" stroke-width="2" fill="none"/><path d="M61.04 126l-.04 1h-2l.04-1.07z"/><path d="M122.3 123.78l-6.26-13.64 9.2-1.07z" stroke="#000" stroke-width="2"/><path d="M10 396.67h100v60H10z" stroke="#000" stroke-width="2" fill="#ff8f80"/><use xlink:href="#ak" transform="matrix(1,0,0,1,15,401.6666666666667) translate(2.5249999999999986 30.025)"/><path d="M60 394.67V207.5" stroke="#000" stroke-width="2" fill="none"/><path d="M61 395.67h-2v-1.03h2z"/><path d="M60 192.23l4.64 14.26h-9.28z" stroke="#000" stroke-width="2"/><path d="M80 687.4h84.2v67.4H80z" stroke="#000" stroke-width="2" fill="#83bbe5"/><use xlink:href="#al" transform="matrix(1,0,0,1,84.99999999999997,692.4000000000001) translate(2.075000000000003 32.525)"/><path d="M121.85 685.43L66.8 475.56" stroke="#000" stroke-width="2" fill="none"/><path d="M123.14 686.4h-2.07l-.2-.74 1.94-.5z"/><path d="M62.93 460.8l8.1 12.62-8.97 2.35z" stroke="#000" stroke-width="2"/><path d="M-40 680h84.2v74.8H-40z" stroke="#000" stroke-width="2" fill="#ff8f80"/><use xlink:href="#i" transform="matrix(1,0,0,1,-35,685) translate(14.2 14.4)"/><use xlink:href="#am" transform="matrix(1,0,0,1,-35,685) translate(21 36)"/><use xlink:href="#an" transform="matrix(1,0,0,1,-35,685) translate(5.574999999999999 57.6)"/><path d="M2.36 678.03l52.96-202.46" stroke="#000" stroke-width="2" fill="none"/><path d="M3.33 678.26l-.2.74H1.08l.33-1.25z"/><path d="M59.18 460.8l.88 14.97-8.97-2.34z" stroke="#000" stroke-width="2"/><path d="M-280 396.67h84.2v74.8H-280z" stroke="#000" stroke-width="2" fill="#83bbe5"/><use xlink:href="#ao" transform="matrix(1,0,0,1,-275,401.66666666666674) translate(2.575000000000003 36.74375)"/><path d="M-231.9 501h-5.9v-2h5.9zm9.86 0h-5.9v-2h5.9zm9.86 0h-5.9v-2h5.9zm9.86 0h-5.92v-2h5.92zm9.86 0h-5.92v-2h5.92zm9.85 0h-5.92v-2h5.9zm9.85 0h-5.9v-2h5.9zm9.86 0h-5.9v-2h5.9zm9.87 0h-5.92v-2h5.92zm9.86 0h-5.92v-2h5.93zm9.85 0h-5.9v-2h5.9zm5.52 0h-1.57v-2h1.57zm33.92 0h-5.92v-2h5.92zm9.86 0h-5.92v-2h5.92zm9.85 0h-5.9v-2h5.9zm9.86 0h-5.92v-2h5.9zm9.85 0h-5.92v-2h5.92zm9.86 0h-5.9v-2h5.9zm9.87 0h-5.92v-2h5.92zm9.85 0h-5.9v-2h5.9zm9.86 0h-5.9v-2h5.9zm9.86 0h-5.9v-2h5.9zm9.86 0h-5.92v-2H4.7zm9.86 0H8.64v-2h5.92zm9.85 0h-5.9v-2h5.9zm-128.14 0h-2.06v-2h2.06zm131.94-2.16h-2v-5.9h2zm-265.1-2.7h-2v-5.9h2zm265.1-7.16h-2v-5.9h2zm-265.1-2.7h-2v-5.9h2zm265.1-7.15h-2v-2.96h2zm-265.1-2.7h-2v-2.96h2z" fill="#666"/><path d="M-236.9 473.5h-2v-1.03h2zM31.84 475.17h-9.28l4.64-14.27z" fill="#666"/><path d="M33.2 476.17h-12l6-18.5zm-9.26-2h6.52l-3.26-10.03z" fill="#666"/><use xlink:href="#ap" transform="matrix(1,0,0,1,-127.79999999999995,489.2) translate(0 14.4)"/><path d="M725.53 398h-2v-3h2zm0-7h-2v-5.98h2zm0-9.98h-2v-6h2zM80.2 377.16h-2v-3h2zm645.33-6.13h-2v-6h2zm-645.33-.86h-2v-6h2zm645.33-9.13h-2v-5.37h.4v-1h1.6zm-644.86-4.37h-.47v3.5h-2v-5.5h2.47zm639.25 0h-6v-2h6zm-10 0h-5.98v-2h6zm-9.97 0h-6v-2h6zm-10 0h-6v-2h6zm-9.98 0h-6v-2h6zm-10 0H664v-2h5.98zm-9.98 0h-6v-2h6zm-10 0h-6v-2h6zm-9.98 0h-6v-2h6zm-10 0h-6v-2h6zm-9.98 0h-6v-2h6zm-10 0h-5.98v-2h6zm-9.98 0h-6v-2h6zm-10 0h-5.98v-2h6zm-9.97 0h-6v-2h6zm-10 0h-6v-2h6zm-10 0h-5.98v-2h6zm-9.98 0h-6v-2h6zm-10 0h-5.98v-2h6zm-9.97 0h-6v-2h6zm-10 0h-6v-2h6zm-31.95 0h-4v-2h4zm-8 0h-6v-2h6zm-9.98 0h-6v-2h6zm-10 0h-6v-2h6zm-9.98 0h-6v-2h6zm-10 0h-5.98v-2h6zm-9.98 0h-6v-2h6zm-10 0h-5.98v-2h6zm-9.97 0h-6v-2h6zm-10 0h-6v-2h6zm-10 0h-5.98v-2h6zm-9.98 0h-6v-2h6zm-10 0h-5.98v-2h6zm-9.97 0h-6v-2h6zm-10 0h-6v-2h6zm-9.98 0h-6v-2h6zm-10 0h-5.98v-2h5.98zm-9.98 0h-6v-2h6zm-10 0h-6v-2h6zm-9.98 0h-6v-2h6zm-10 0h-6v-2h6zm-9.98 0h-6v-2h6zm-10 0h-5.98v-2h6zm-9.98 0h-6v-2h6zm-10 0h-5.98v-2h6zm-9.97 0h-6v-2h6zm-10 0h-6v-2h6zm-10 0h-5.98v-2h6zm-9.98 0h-6v-2h6zm-10 0h-5.98v-2h6zm-9.97 0h-6v-2h6zm-10 0h-6v-2h6zm-9.98 0h-6v-2h6zm-10 0h-5.98v-2h5.98zm-9.98 0h-6v-2h6zm-10 0h-6v-2h6zm-9.98 0h-6v-2h6zm-10 0h-6v-2h6zm-9.98 0h-6v-2h6zm-10 0h-5.98v-2h6zm-9.98 0h-6v-2h6z" fill="#666"/><path d="M725.53 399h-2v-1.03h2zM79.2 392.43l-4.64-14.27h9.28z" fill="#666"/><path d="M79.2 395.67l-6-18.5h12zm-3.26-16.5l3.26 10.02 3.26-10.04z" fill="#666"/><use xlink:href="#aq" transform="matrix(1,0,0,1,488.2000000000005,344.8666666666667) translate(0 14.4)"/><path d="M105 549h.32v2H103v-5.65h2zm10.3 2h-6v-2h6zm9.95 0h-5.98v-2h5.98zm9.96 0h-5.96v-2h5.97zm9.98 0h-5.98v-2h5.98zm9.96 0h-5.98v-2h5.98zm9.96 0h-5.97v-2h5.97zm9.97 0h-5.98v-2h5.97zm9.96 0h-5.98v-2h5.98zm9.96 0h-6v-2h6zm9.96 0h-5.98v-2h5.98zm9.96 0h-5.98v-2h5.98zm9.96 0h-5.98v-2h5.98zm9.97 0h-5.98v-2h5.98zm9.96 0h-5.97v-2h5.98zm9.97 0h-5.98v-2h5.97zm9.97 0h-5.98v-2h5.98zm9.96 0h-5.98v-2h5.98zm9.96 0h-5.98v-2h5.98zm9.96 0h-5.97v-2h5.97zm9.97 0h-6v-2h6zm9.95 0h-5.98v-2h5.98zm9.96 0h-5.96v-2h5.97zm9.98 0h-5.98v-2h5.98zm9.96 0h-5.98v-2h5.98zm39.85 0h-5.98v-2h5.97zm9.96 0h-5.98v-2h5.98zm9.96 0h-5.98v-2h5.98zm9.96 0h-5.98v-2h5.98zm9.97 0h-5.98v-2h5.98zm9.96 0h-5.97v-2h5.98zm9.97 0h-5.98v-2h5.97zm9.97 0h-5.98v-2h5.98zm9.96 0h-5.98v-2H464zm9.96 0h-5.98v-2h5.98zm9.97 0h-5.98v-2h5.98zm9.96 0h-6v-2h6zm9.95 0h-5.98v-2h5.98zm9.96 0h-5.96v-2h5.97zm9.98 0h-5.98v-2h5.98zm9.96 0h-5.98v-2h5.98zm9.96 0h-5.97v-2h5.97zm9.97 0h-5.98v-2h5.97zm9.96 0h-5.98v-2h5.98zm9.96 0h-5.98v-2h5.97zm9.96 0h-5.98v-2h5.98zm9.96 0h-5.98v-2h5.98zm9.96 0h-5.97v-2h5.98zm9.97 0h-5.98v-2h5.98zm9.96 0h-5.97v-2h5.98zm9.97 0h-5.98v-2h5.97zm9.97 0h-5.98v-2h5.98zm9.96 0h-5.98v-2h5.98zm9.96 0h-5.98v-2h5.98zm9.97 0h-5.98v-2h5.98zm9.96 0h-6v-2h6zm9.95 0h-5.98v-2h5.98zm9.96 0h-5.96v-2h5.97zm7.23 0h-3.23v-2h1.23v-2.74h2zm0-8.73h-2v-5.98h2zm-605.33-.9h-2v-6h2zm605.33-9.06h-2v-5.97h2zM105 531.4h-2v-5.98h2zm605.33-9.06h-2v-5.97h2zm-605.33-.9h-2v-5.98h2zm605.33-9.06h-2v-5.98h2zm-605.33-.9h-2v-6h2zm605.33-9.06h-2v-5.98h2zm-605.33-.9h-2v-6h2zm605.33-9.07h-2v-5.97h2zm-605.33-.9h-2v-5.98h2zm605.33-9.06h-2v-3h2zM105 481.57h-2v-5.98h2zm0-9.96h-2v-5.98h2zm0-9.96h-2v-3h2z" fill="#666"/><path d="M105 458.7h-2v-1.03h2zM713.97 478.5h-9.27l4.63-14.26z" fill="#666"/><path d="M715.35 479.5h-12.03l6-18.5zm-9.28-2h6.52l-3.27-10.03z" fill="#666"/><g><use xlink:href="#ar" transform="matrix(1,0,0,1,344.8692028985512,539.2) translate(0 14.4)"/></g></g><g class="lucid-layer" lucid:layer-id="Ox1Oq5ZXT~rS" display="block"><path d="M1005.8 500h3.54v2h-5.54v-2.54h2zm13.66 2h-6.07v-2h6.06zm10.13 0h-6.1v-2h6.1zm10.1 0h-6.06v-2h6.07zm10.14 0h-6.08v-2h6.08zm10.12 0h-6.07v-2h6.06zm4.84 0h-.8v-2h.8zm35.66 0h-6.07v-2h6.06zm10.13 0h-6.1v-2h6.1zm10.1 0h-6.06v-2h6.07zm10.14 0h-6.08v-2h6.08zm10.12 0h-6.07v-2h6.06zm-50.62 0h-3.54v-2h3.54zm54.13-2.54h-2v-6.08h2zm-138.67-4.05h-2v-6.06h2zm138.67-6.07h-2v-6.07h2zm-138.67-4.04h-2v-6.1h2zm138.67-6.1h-2v-3.03h2zm-138.67-4.04h-2v-6.07h2zm0-10.12h-2V462h2z" fill="#666"/><path d="M1005.8 462.03h-2V461h2zM1148.1 475.17h-9.27l4.64-14.27z" fill="#666"/><path d="M1149.48 476.17h-12.03l6.02-18.5zm-9.27-2h6.53l-3.26-10.03z" fill="#666"/><use xlink:href="#as" transform="matrix(1,0,0,1,1064.8000000000002,490.2) translate(0 14.4)"/><path d="M-231.2 571h-6v-2h6zm10.02 0h-6v-2h6zm10.02 0h-6v-2h6zm10.03 0h-6.02v-2h6.02zm10.02 0h-6.03v-2h6.02zm10 0h-6v-2h6zm10.03 0h-6v-2h6zm10.02 0h-6v-2h6zm10.03 0h-6.02v-2h6.02zm10.02 0h-6.02v-2h6.02zm10.02 0h-6v-2h6zm10.02 0h-6v-2h6zm10.02 0h-6v-2h6zm10.03 0h-6.03v-2h6.02zm10 0h-6v-2h6zm10.03 0h-6v-2h6zm10.02 0h-6v-2h6zm10.02 0h-6v-2h6zm10.03 0h-6.02v-2h6.02zm10.02 0h-6.02v-2h6.02zm10.02 0h-6v-2h6zm10.02 0h-6v-2h6zm10.02 0h-6v-2h6zm10.03 0h-6v-2h6zm10.03 0H3.3v-2h6.03zm10.02 0h-6v-2h6zm10.02 0h-6v-2h6zm10.02 0h-6.02v-2h6zm10.02 0H43.4v-2h6.02zm10.02 0h-6.02v-2h6.02zm10.02 0h-6v-2h6zm10.02 0h-6v-2h6zm10.02 0h-6v-2h6zm10.03 0H93.5v-2h6.03zm10.02 0h-6v-2h6zm10.02 0h-6v-2h6zm10.02 0h-6.02v-2h6zm10 0h-6v-2h6zm10.04 0h-6.02v-2h6.02zm10.02 0h-6v-2h6zm10.02 0h-6v-2h6zm10.02 0h-6v-2h6zm10.02 0h-6v-2h6zm10.03 0h-6.02v-2h6.02zm10.02 0h-6v-2h6zm10.02 0h-6.02v-2h6zm10 0h-6v-2h6zm10.03 0h-6v-2h6zm10.03 0h-6.02v-2h6.02zm10.02 0h-6v-2h6zm10.02 0h-6v-2h6zm10.02 0h-6v-2h6zm10.03 0h-6.02v-2h6.02zm10.02 0h-6.02v-2h6.02zm10.02 0h-6.02v-2h6zm10 0h-6v-2h6zm10.03 0h-6v-2h6zm10.03 0h-6.02v-2h6.02zm30.06 0h-6v-2h6zm10.02 0h-6v-2h6zm10.03 0h-6.02v-2h6.02zm10.02 0h-6.03v-2h6.02zm10 0h-6v-2h6zm10.03 0h-6v-2h6zm10.02 0h-6v-2h6zm10.03 0h-6.02v-2h6.02zm10.02 0h-6.02v-2h6.02zm10.02 0h-6v-2h6zm10.02 0h-6v-2h6zm10.02 0h-6v-2h6zm10.03 0h-6.03v-2h6.02zm10 0h-6v-2h6zm10.03 0h-6v-2h6zm10.02 0h-6v-2h6zm10.02 0h-6v-2h6zm10.03 0h-6.02v-2h6.02zm10.02 0h-6v-2h6zm10.02 0h-6v-2h6zm10.02 0h-6v-2h6zm10.02 0h-6v-2h6zm10.03 0h-6v-2h6zm10.03 0h-6v-2h6zm10.02 0h-6v-2h6zm10.02 0h-6v-2h6zm10.02 0h-6.02v-2h6zm10.02 0h-6.02v-2h6.02zm10.02 0h-6v-2h6zm10.02 0h-6v-2h6zm10.02 0h-6v-2h6zm10.02 0h-6v-2h6zm10.03 0h-6.02v-2h6.03zm10.02 0h-6v-2h6zm10.02 0h-6v-2h6zm10.02 0h-6.02v-2h6zm10 0h-6v-2h6zm10.04 0h-6.02v-2h6.02zm10.02 0h-6v-2h6zm10.02 0h-6v-2h6zm10.02 0h-6v-2h6zm10.03 0H775v-2h6.03zm10.02 0h-6.02v-2h6.02zm10.02 0h-6v-2h6zm10.02 0h-6.02v-2h6zm10 0h-6v-2h6zm10.04 0h-6.02v-2h6.02zm10.02 0h-6.02v-2h6.02zm10.02 0h-6v-2h6zm10.02 0h-6v-2h6zm10.02 0h-6v-2h6zm10.03 0h-6.02v-2h6.02zm10.02 0h-6.02v-2h6.02zm10.02 0h-6.02v-2h6zm10 0h-6v-2h6zm10.03 0h-6v-2h6zm10.03 0h-6.02v-2h6.02zm10.02 0h-6.02v-2h6.02zm10.02 0h-6v-2h6zm10.02 0h-6v-2h6zm10.02 0h-6v-2h6zm10.03 0h-6.02v-2h6.02zm10.02 0h-6.03v-2h6.02zm10 0h-6v-2h6zm10.03 0h-6v-2h6zm10.02 0h-6v-2h6zm10.03 0h-6.02v-2h6.02zm10.02 0h-6v-2h6zm10.02 0h-6v-2h6zm10.02 0h-6v-2h6zm10.02 0h-6v-2h6zm10.03 0h-6.03v-2h6.02zm10 0h-6v-2h6zm10.03 0h-6v-2h6zm10.02 0h-6v-2h6zm10.02 0h-6v-2h6zm10.03 0h-6.02v-2h6.02zm10.02 0h-6v-2h6zm10.02 0h-6v-2h6zm10.02 0h-6v-2h6zm10.02 0h-6v-2h6zm10.03 0h-6v-2h6zm10.03 0h-6v-2h6zm10.02 0h-6v-2h6zm4.38-1.63h-2v-6h2zm-1443.22-2.7h-2v-6h2zm1443.23-7.32h-2v-6h2zm-1443.22-2.7h-2v-6h2zm1443.23-7.32h-2v-6h2zm-1443.22-2.7h-2v-6.02h2zm1443.23-7.32h-2v-6h2zm-1443.22-2.7h-2v-6h2zm1443.23-7.3h-2v-6.03h2zm-1443.22-2.72h-2v-6h2zm1443.23-7.32h-2v-6h2zm-1443.22-2.7h-2v-6h2zm1443.23-7.32h-2v-6h2zm-1443.22-2.7h-2v-6h2zm1443.23-7.32h-2v-6h2zm-1443.22-2.7h-2v-6.02h2zm1443.23-7.32h-2v-6.02h2zm-1443.22-2.7h-2v-6.02h2zm1443.23-7.32h-2v-3h2zm-1443.22-2.7h-2v-3h2z" fill="#666"/><path d="M-236.9 473.5h-2v-1.03h2zM1209.97 475.17h-9.27l4.63-14.27z" fill="#666"/><path d="M1211.35 476.17h-12.03l6-18.5zm-9.28-2h6.52l-3.27-10.03z" fill="#666"/><use xlink:href="#at" transform="matrix(1,0,0,1,342.03320380921735,559.2) translate(0 14.4)"/><path d="M1153 394.67h-2v-2.96h2zm0-6.9h-2v-5.94h2zm-153.33-7.27h-2v-2.96h2zm153.33-2.6h-2v-5.94h2zm-153.33-4.3h-2v-5.93h2zM1153 368h-2v-5.9h2zm-153.33-4.28h-2v-5.93h2zm153.33-5.58h-2v-1.47h-2.45v-2h4.45zm-8.4-1.47h-5.92v-2h5.93zm-9.87 0h-5.92v-2h5.93zm-9.87 0h-5.92v-2h5.92zm-9.87 0h-5.93v-2h5.92zm-9.88 0h-5.92v-2h5.92zm-50.95 0h-4.33v-2h4.33zm-8.28 0h-5.93v-2h5.92zm-9.88 0h-5.92v-2h5.92zm-9.87 0h-5.92v-2h5.92zm-9.87 0h-5.92v-2h5.92zm-9.87 0h-5.9v-2h5.9zm88.85 0h-2.08v-2h2.08z" fill="#666"/><path d="M1153 395.67h-2v-1.03h2zM998.67 395.76l-4.64-14.26h9.27z" fill="#666"/><path d="M998.67 399l-6.02-18.5h12.03zm-3.26-16.5l3.27 10.03 3.26-10.03z" fill="#666"/><use xlink:href="#au" transform="matrix(1,0,0,1,1054.166666666667,344.86666666666673) translate(0 14.4)"/></g><g class="lucid-layer" lucid:layer-id="Cg1OAfAR88BC" display="block"><path d="M280 128h160v60H280z" stroke="#000" stroke-width="2" fill="#a3d977"/><use xlink:href="#av" transform="matrix(1,0,0,1,285,132.99267406893222) translate(56.525 30.025)"/><path d="M360.04 126l.25-5.9.75-5.83 1.1-4.95 1.33-4.24 1.5-3.63 1.6-3.1 1.72-2.7 1.76-2.3 1.8-1.97 1.84-1.68 1.85-1.42 1.86-1.2 1.87-.97 1.88-.76 1.87-.6 1.88-.4 1.87-.26 1.87-.1 1.88.1 1.87.24 1.87.4 1.87.6 1.88.77 1.86.96 1.87 1.2 1.85 1.4 1.83 1.68 1.8 1.96 1.77 2.3 1.7 2.67 1.62 3.1 1.5 3.62 1.18 3.7" stroke="#000" stroke-width="2" fill="none"/><path d="M361.04 126l-.04 1h-2l.04-1.08z"/><path d="M416.92 123.78l-6.4-13.56 9.2-1.18z" stroke="#000" stroke-width="2"/><path d="M370 396.67h140v60H370z" stroke="#000" stroke-width="2" fill="#ff8f80"/><use xlink:href="#aw" transform="matrix(1,0,0,1,375,401.6666666666667) translate(3.125 30.025)"/><use xlink:href="#ax" transform="matrix(1,0,0,1,375,401.6666666666667) translate(90.025 30.025)"/><path d="M439.64 394.73l-72.96-188.48" stroke="#000" stroke-width="2" fill="none"/><path d="M441.07 395.67h-2.14l-.23-.6 1.86-.72z"/><path d="M361.17 192l9.47 11.64L362 207z" stroke="#000" stroke-width="2"/><path d="M227.9 687.4h84.2v67.4h-84.2z" stroke="#000" stroke-width="2" fill="#83bbe5"/><use xlink:href="#ay" transform="matrix(1,0,0,1,232.89473684210532,692.4000000000001) translate(1.5999999999999943 32.525)"/><path d="M200 396.67h140v60H200z" stroke="#000" stroke-width="2" fill="#83bbe5"/><use xlink:href="#az" transform="matrix(1,0,0,1,205,401.6666666666667) translate(11.42499999999999 30.025)"/><use xlink:href="#aA" transform="matrix(1,0,0,1,205,401.6666666666667) translate(81.625 30.025)"/><path d="M270.4 394.75l82.2-188.8" stroke="#000" stroke-width="2" fill="none"/><path d="M271.33 395.13l-.24.54h-2.2l.6-1.34z"/><path d="M358.7 191.96l-1.44 14.93-8.5-3.7z" stroke="#000" stroke-width="2"/><path d="M270 685.4V476.17" stroke="#000" stroke-width="2" fill="none"/><path d="M271 686.4h-2v-1.03h2z"/><path d="M270 460.9l4.64 14.27h-9.28z" stroke="#000" stroke-width="2"/><path d="M388.95 687.4h102.1v67.4h-102.1z" stroke="#000" stroke-width="2" fill="#ff8f80"/><use xlink:href="#aB" transform="matrix(1,0,0,1,393.9473684210527,692.4000000000001) translate(5.549999999999997 21.65)"/><use xlink:href="#aC" transform="matrix(1,0,0,1,393.9473684210527,692.4000000000001) translate(28.025 43.25)"/><path d="M440 685.4V476.17" stroke="#000" stroke-width="2" fill="none"/><path d="M441 686.4h-2v-1.03h2z"/><path d="M440 460.9l4.64 14.27h-9.28z" stroke="#000" stroke-width="2"/><path d="M-231.04 521h-6.05v-2h6.06zm10.07 0h-6.05v-2h6.05zm10.07 0h-6.04v-2h6.04zm10.07 0h-6.04v-2h6.04zm10.08 0h-6.05v-2h6.05zm10.07 0h-6.05v-2h6.05zm10.07 0h-6.05v-2h6.04zm10.06 0h-6.04v-2h6.04zm10.07 0h-6.04v-2h6.03zm10.08 0h-6.04v-2h6.05zm10.08 0h-6.04v-2h6.04zm10.07 0h-6.04v-2h6.05zm10.07 0h-6.04v-2h6.04zm10.08 0h-6.05v-2h6.05zm10.07 0h-6.04v-2h6.04zm10.07 0H-86v-2h6.04zm10.07 0h-6.03v-2h6.04zm10.1 0h-6.06v-2h6.05zm7.64 0h-3.62v-2h3.62zm32.64 0h-6.05v-2h6.05zm10.07 0h-6.05v-2h6.05zm10.07 0h-6.04v-2H.62zm10.07 0H4.64v-2h6.04zm10.07 0h-6.05v-2h6.05zm10.07 0H24.8v-2h6.04zm10.07 0h-6.03v-2h6.04zM51 521h-6.04v-2h6.04zm10.07 0H55v-2h6.05zm10.08 0h-6.05v-2h6.05zm10.07 0h-6.04v-2h6.04zm10.07 0h-6.04v-2h6.04zm10.07 0H95.3v-2h6.04zm10.08 0h-6.05v-2h6.05zm10.07 0h-6.05v-2h6.04zm10.06 0h-6.04v-2h6.04zm10.07 0h-6.04v-2h6.03zm10.08 0h-6.04v-2h6.05zm10.08 0h-6.04v-2h6.04zm10.07 0h-6.04v-2h6.05zm10.07 0h-6.04v-2h6.04zm10.08 0h-6.05v-2H192zm10.07 0h-6.05v-2h6.05zm10.07 0h-6.04v-2h6.04zm10.07 0h-6.03v-2h6.04zm10.1 0h-6.06v-2h6.05zm10.06 0h-6.05v-2h6.06zm-271.96 0h-.56v-2h.56zm276.47-1.52h-2v-6.04h2zm-483.76-2.7h-2v-6.05h2zm483.77-7.37h-2v-6.04h2zm-483.76-2.7h-2v-6.04h2zm483.77-7.36h-2v-6.05h2zm-483.76-2.7h-2v-6.05h2zm483.77-7.38h-2v-6.04h2zm-483.76-2.7h-2v-6.04h2zm483.77-7.37h-2v-3.03h2zm-483.76-2.7h-2v-3.03h2z" fill="#666"/><path d="M-236.9 473.5h-2v-1.03h2zM250.5 475.17h-9.27l4.64-14.27z" fill="#666"/><path d="M251.88 476.17h-12.03l6.02-18.5zm-9.27-2h6.53l-3.26-10.03z" fill="#666"/><use xlink:href="#aD" transform="matrix(1,0,0,1,-52.15756510864932,509.2) translate(0 14.4)"/><path d="M93.27 496.67h3.3v2h-5.3v-2.75h2zm13.35 2h-6.04v-2h6.04zm10.07 0h-6.05v-2h6.04zm10.06 0h-6.04v-2h6.04zm10.07 0h-6.04v-2h6.03zm10.06 0h-6.05v-2h6.04zm10.06 0h-6.04v-2h6.04zm10.07 0H161v-2h6.03zm10.07 0h-6.04v-2h6.04zm10.06 0h-6.04v-2h6.04zm10.07 0h-6.04v-2h6.03zm10.07 0h-6.04v-2h6.04zm10.07 0h-6.04v-2h6.04zm10.06 0h-6.04v-2h6.03zm10.07 0h-6.04v-2h6.04zm10.07 0h-6.04v-2h6.04zm10.07 0h-6.04v-2h6.04zm10.06 0h-6.04v-2h6.04zm10.07 0h-6.04v-2h6.04zm10.07 0h-6.04v-2h6.04zm10.07 0h-6.03v-2h6.04zm10.07 0h-6.04v-2h6.04zm10.07 0H312v-2h6.04zm9.77 0h-5.73v-2h5.74zm30.5 0h-6.03v-2h6.04zm10.08 0h-6.04v-2h6.04zm10.07 0h-6.04v-2h6.05zm10.06 0h-6.03v-2h6.04zm10.08 0h-6.04v-2h6.04zm6.7 0h-2.67v-2h.67v-3.4h2zm-312-6.78h-2v-6.05h2zm312-2.64h-2v-6.04h2zm-312-7.44h-2v-6.04h2zm312-2.63h-2v-3.03h2zm-312-7.45h-2v-6.04h2zm0-10.06h-2v-3.03h2z" fill="#666"/><path d="M93.27 458.7h-2v-1.03h2zM408.9 475.17h-9.27l4.64-14.27z" fill="#666"/><path d="M410.28 476.17h-12.03l6.02-18.5zm-9.27-2h6.53l-3.26-10.03z" fill="#666"/><use xlink:href="#aE" transform="matrix(1,0,0,1,328.20000000000005,486.8666666666667) translate(0 14.4)"/><path d="M477.27 529h.52v2h-2.53v-5.47h2zm10.5 2h-6v-2h6zm9.98 0h-6v-2h6zm9.98 0h-6v-2h6zm9.98 0h-5.98v-2h6zm10 0h-6v-2h6zm9.96 0h-5.98v-2h5.98zm9.98 0h-5.98v-2h5.98zm9.98 0h-5.98v-2h5.98zm9.98 0h-5.98v-2h5.98zm9.98 0h-5.98v-2h5.98zm9.98 0h-5.98v-2h5.98zm9.98 0h-5.98v-2h5.98zm9.98 0h-5.98v-2h5.98zm9.98 0h-5.98v-2h5.98zm9.98 0h-5.98v-2h5.98zm9.98 0h-5.98v-2h5.98zm9.98 0h-6v-2h6zm9.98 0h-6v-2h6zm9.98 0h-6v-2h6zm9.98 0h-6v-2h6zm9.98 0h-6v-2h6zm9.98 0h-6v-2h6zm9.98 0h-6v-2h6zm9.98 0h-6v-2h6zm9.98 0h-6v-2h6zm9.98 0h-6v-2h6zm9.98 0h-6v-2h6zm9.98 0h-6v-2h6zm9.98 0h-6v-2h6zm9.98 0h-6v-2h6zm9.98 0h-6v-2h6zm9.98 0h-6v-2h6zm9.98 0h-6v-2h6zm9.98 0h-6v-2h6zm9.98 0h-6v-2h6zm9.98 0h-6v-2h6zm9.98 0h-6v-2h6zm9.98 0h-6v-2h6zm9.98 0h-6v-2h6zm9.98 0h-6v-2h6zm9.98 0h-6v-2h6zm9.77 0h-5.78v-2h5.78zm30.15 0h-6v-2h6zm9.98 0h-6v-2h6zm9.98 0h-6v-2h6zm9.98 0h-6v-2h6zm9.98 0h-6v-2h6zm9.98 0h-6v-2h6zm9.98 0h-6v-2h6zm9.98 0h-6v-2h6zm9.98 0h-6v-2h6zm9.98 0h-6v-2h6zm9.98 0h-6v-2h6zm9.98 0h-6v-2h6zm9.98 0h-6v-2h6zm9.98 0h-6v-2h6zm9.97 0h-6v-2h6zm9.97 0h-5.98v-2h5.97zm9.98 0h-5.98v-2h5.98zm9.98 0h-5.98v-2h5.98zm9.98 0h-5.97v-2h5.98zm10 0h-6v-2h6zm9.97 0h-5.98v-2h5.97zm9.98 0h-5.98v-2h5.98zm9.98 0h-5.98v-2h5.98zm9.98 0h-5.97v-2h5.98zm4.07-1.94h-2v-6h2zm-683.2-7.52h-2v-6h2zm683.2-2.46h-2v-6h2zm-683.2-7.52h-2v-6h2zm683.2-2.46h-2v-6h2zm-683.2-7.52h-2v-6h2zm683.2-2.46h-2v-6h2zm-683.2-7.52h-2v-6h2zm683.2-2.46h-2v-6h2zm-683.2-7.52h-2v-6h2zm683.2-2.46h-2v-3h2zm-683.2-7.52h-2v-6h2zm0-9.98h-2v-3h2z" fill="#666"/><path d="M477.27 458.7h-2v-1.03h2zM1164.1 475.17h-9.27l4.64-14.27z" fill="#666"/><path d="M1165.48 476.17h-12.03l6.02-18.5zm-9.27-2h6.53l-3.26-10.03z" fill="#666"/><use xlink:href="#aF" transform="matrix(1,0,0,1,896.7333333333331,519.2) translate(0 14.4)"/><path d="M493.27 509h1.32v2h-3.33v-4.75h2zm11.44 2h-6.06v-2h6.07zm10.14 0h-6.08v-2h6.08zm10.12 0h-6.07v-2h6.06zm10.12 0H529v-2h6.08zm10.13 0h-6.07v-2h6.08zm10.13 0h-6.07v-2h6.07zm10.12 0h-6.07v-2h6.07zm7.28 0h-3.23v-2h3.23zm33.22 0h-6.08v-2h6.08zm10.12 0H610v-2h6.07zm10.13 0h-6.08v-2h6.08zm10.12 0h-6.08v-2h6.08zm10.12 0h-6.07v-2h6.07zm10.13 0h-6.08v-2h6.07zm10.12 0h-6.08v-2h6.07zm10.1 0h-6.06v-2h6.07zm10.14 0h-6.08v-2h6.08zm10.12 0H691v-2h6.06zm10.12 0h-6.07v-2h6.08zm10.13 0h-6.07v-2h6.08zm7.97 0h-3.9v-2h1.9v-2.16h2zm-129.45 0h-1.1v-2h1.1zm129.45-8.2h-2v-6.1h2zm-232-.6h-2v-6.08h2zm232-9.54h-2v-6.07h2zm-232-.6h-2V486h2zm232-9.52h-2v-3.04h2zm-232-.6h-2v-6.06h2zm0-10.1h-2v-6.1h2zm0-10.14h-2v-3.03h2z" fill="#666"/><path d="M493.27 458.7h-2v-1.03h2zM728.9 478.5h-9.27l4.64-14.26z" fill="#666"/><path d="M730.28 479.5h-12.03l6.02-18.5zm-9.27-2h6.53l-3.26-10.03z" fill="#666"/><use xlink:href="#aG" transform="matrix(1,0,0,1,572.7333333333333,499.2) translate(0 14.4)"/><path d="M147.35 794.8h3.15v2h-5.15v-2.87h2zm13.18 2h-6.02v-2h6.03zm10.04 0h-6.02v-2h6.02zm9.8 0h-5.8v-2h5.8zm40.37 0h-6.02v-2h6.02zm10.03 0h-6.02v-2h6.02zm10.04 0h-6v-2h6zm6.6 0h-2.58v-2h.58v-3.44h2zm-100.05-6.9h-2v-6h2zm100.05-2.55h-2v-6.02h2zm-100.05-7.47h-2v-6.02h2zm100.05-2.57h-2v-3h2zm-100.05-7.46h-2v-6.02h2zm0-10.03h-2v-3h2z"/><path d="M147.35 756.83h-2v-1.03h2zM251.04 773.3h-9.28l4.64-14.26z"/><path d="M252.4 774.3h-12l6-18.5zm-9.26-2h6.52l-3.26-10.03z"/><g><use xlink:href="#aH" transform="matrix(1,0,0,1,180.37666666666684,785.0000000000001) translate(0 14.4)"/></g></g><defs><path d="M240 0l2-218c-23 76-54 145-80 218h-23L58-218 59 0H30v-248h44l77 211c21-75 51-140 76-211h43V0h-30" id="aI"/><path d="M140-251c81 0 123 46 123 126C263-46 219 4 140 4 59 4 17-45 17-125s42-126 123-126zm0 227c63 0 89-41 89-101s-29-99-89-99c-61 0-89 39-89 99S79-25 140-24" id="aJ"/><path d="M63-220v92h138v28H63V0H30v-248h175v28H63" id="aK"/><g id="a"><use transform="matrix(0.05,0,0,0.05,0,0)" xlink:href="#aI"/><use transform="matrix(0.05,0,0,0.05,14.950000000000001,0)" xlink:href="#aJ"/><use transform="matrix(0.05,0,0,0.05,28.950000000000003,0)" xlink:href="#aK"/></g><path d="M233-177c-1 41-23 64-60 70L243 0h-38l-65-103H63V0H30v-248c88 3 205-21 203 71zM63-129c60-2 137 13 137-47 0-61-80-42-137-45v92" id="aL"/><path d="M30-248c118-7 216 8 213 122C240-48 200 0 122 0H30v-248zM63-27c89 8 146-16 146-99s-60-101-146-95v194" id="aM"/><path d="M87 75C49 33 22-17 22-94c0-76 28-126 65-167h31c-38 41-64 92-64 168S80 34 118 75H87" id="aN"/><path d="M185-189c-5-48-123-54-124 2 14 75 158 14 163 119 3 78-121 87-175 55-17-10-28-26-33-46l33-7c5 56 141 63 141-1 0-78-155-14-162-118-5-82 145-84 179-34 5 7 8 16 11 25" id="aO"/><path d="M33-261c38 41 65 92 65 168S71 34 33 75H2C39 34 66-17 66-93S39-220 2-261h31" id="aP"/><g id="b"><use transform="matrix(0.05,0,0,0.05,0,0)" xlink:href="#aL"/><use transform="matrix(0.05,0,0,0.05,12.950000000000001,0)" xlink:href="#aM"/><use transform="matrix(0.05,0,0,0.05,25.900000000000002,0)" xlink:href="#aK"/><use transform="matrix(0.05,0,0,0.05,36.85,0)" xlink:href="#aN"/><use transform="matrix(0.05,0,0,0.05,42.800000000000004,0)" xlink:href="#aO"/><use transform="matrix(0.05,0,0,0.05,54.800000000000004,0)" xlink:href="#aP"/></g><path d="M179-190L93 31C79 59 56 82 12 73V49c39 6 53-20 64-50L1-190h34L92-34l54-156h33" id="aQ"/><path d="M135-143c-3-34-86-38-87 0 15 53 115 12 119 90S17 21 10-45l28-5c4 36 97 45 98 0-10-56-113-15-118-90-4-57 82-63 122-42 12 7 21 19 24 35" id="aR"/><path d="M30 0v-248h33v221h125V0H30" id="aS"/><g id="c"><use transform="matrix(0.05,0,0,0.05,0,0)" xlink:href="#aO"/><use transform="matrix(0.05,0,0,0.05,12,0)" xlink:href="#aQ"/><use transform="matrix(0.05,0,0,0.05,21,0)" xlink:href="#aR"/><use transform="matrix(0.05,0,0,0.05,30,0)" xlink:href="#aI"/><use transform="matrix(0.05,0,0,0.05,44.95,0)" xlink:href="#aS"/></g><path d="M232-93c-1 65-40 97-104 97C67 4 28-28 28-90v-158h33c8 89-33 224 67 224 102 0 64-133 71-224h33v155" id="aT"/><g id="d"><use transform="matrix(0.05,0,0,0.05,0,0)" xlink:href="#aT"/><use transform="matrix(0.05,0,0,0.05,12.950000000000001,0)" xlink:href="#aI"/><use transform="matrix(0.05,0,0,0.05,27.900000000000002,0)" xlink:href="#aS"/></g><path d="M266 0h-40l-56-210L115 0H75L2-248h35L96-30l15-64 43-154h32l59 218 59-218h35" id="aU"/><path d="M16-82v-28h88v28H16" id="aV"/><g id="e"><use transform="matrix(0.05,0,0,0.05,0,0)" xlink:href="#aJ"/><use transform="matrix(0.05,0,0,0.05,14,0)" xlink:href="#aU"/><use transform="matrix(0.05,0,0,0.05,30.950000000000003,0)" xlink:href="#aS"/><use transform="matrix(0.05,0,0,0.05,40.95,0)" xlink:href="#aV"/><use transform="matrix(0.05,0,0,0.05,46.900000000000006,0)" xlink:href="#aI"/><use transform="matrix(0.05,0,0,0.05,61.85,0)" xlink:href="#aJ"/><use transform="matrix(0.05,0,0,0.05,75.85000000000001,0)" xlink:href="#aK"/></g><g id="f"><use transform="matrix(0.05,0,0,0.05,0,0)" xlink:href="#aJ"/><use transform="matrix(0.05,0,0,0.05,14,0)" xlink:href="#aU"/><use transform="matrix(0.05,0,0,0.05,30.950000000000003,0)" xlink:href="#aS"/></g><path d="M33 0v-248h34V0H33" id="aW"/><path d="M212-179c-10-28-35-45-73-45-59 0-87 40-87 99 0 60 29 101 89 101 43 0 62-24 78-52l27 14C228-24 195 4 139 4 59 4 22-46 18-125c-6-104 99-153 187-111 19 9 31 26 39 46" id="aX"/><g id="g"><use transform="matrix(0.05,0,0,0.05,0,0)" xlink:href="#aW"/><use transform="matrix(0.05,0,0,0.05,5,0)" xlink:href="#aK"/><use transform="matrix(0.05,0,0,0.05,15.950000000000001,0)" xlink:href="#aX"/><use transform="matrix(0.05,0,0,0.05,28.900000000000002,0)" xlink:href="#aV"/><use transform="matrix(0.05,0,0,0.05,34.85,0)" xlink:href="#aJ"/><use transform="matrix(0.05,0,0,0.05,48.85,0)" xlink:href="#aU"/><use transform="matrix(0.05,0,0,0.05,65.8,0)" xlink:href="#aS"/></g><path d="M205 0l-28-72H64L36 0H1l101-248h38L239 0h-34zm-38-99l-47-123c-12 45-31 82-46 123h93" id="aY"/><g id="h"><use transform="matrix(0.05,0,0,0.05,0,0)" xlink:href="#aW"/><use transform="matrix(0.05,0,0,0.05,5,0)" xlink:href="#aK"/><use transform="matrix(0.05,0,0,0.05,15.950000000000001,0)" xlink:href="#aX"/><use transform="matrix(0.05,0,0,0.05,28.900000000000002,0)" xlink:href="#aV"/><use transform="matrix(0.05,0,0,0.05,34.85,0)" xlink:href="#aL"/><use transform="matrix(0.05,0,0,0.05,47.800000000000004,0)" xlink:href="#aY"/><use transform="matrix(0.05,0,0,0.05,59.800000000000004,0)" xlink:href="#aW"/><use transform="matrix(0.05,0,0,0.05,64.80000000000001,0)" xlink:href="#aS"/></g><path d="M127-220V0H93v-220H8v-28h204v28h-85" id="aZ"/><path d="M30 0v-248h187v28H63v79h144v27H63v87h162V0H30" id="ba"/><path d="M30-248c87 1 191-15 191 75 0 78-77 80-158 76V0H30v-248zm33 125c57 0 124 11 124-50 0-59-68-47-124-48v98" id="bb"/><g id="i"><use transform="matrix(0.05,0,0,0.05,0,0)" xlink:href="#aO"/><use transform="matrix(0.05,0,0,0.05,12,0)" xlink:href="#aZ"/><use transform="matrix(0.05,0,0,0.05,22.950000000000003,0)" xlink:href="#ba"/><use transform="matrix(0.05,0,0,0.05,34.95,0)" xlink:href="#bb"/></g><g id="j"><use transform="matrix(0.05,0,0,0.05,0,0)" xlink:href="#aY"/><use transform="matrix(0.05,0,0,0.05,12,0)" xlink:href="#bb"/><use transform="matrix(0.05,0,0,0.05,24,0)" xlink:href="#aR"/></g><path d="M126-127c33 6 58 20 58 59 0 88-139 92-164 29-3-8-5-16-6-25l32-3c6 27 21 44 54 44 32 0 52-15 52-46 0-38-36-46-79-43v-28c39 1 72-4 72-42 0-27-17-43-46-43-28 0-47 15-49 41l-32-3c6-42 35-63 81-64 48-1 79 21 79 65 0 36-21 52-52 59" id="bc"/><g id="k"><use transform="matrix(0.05,0,0,0.05,0,0)" xlink:href="#ba"/><use transform="matrix(0.05,0,0,0.05,12,0)" xlink:href="#bc"/></g><g id="l"><use transform="matrix(0.05,0,0,0.05,0,0)" xlink:href="#aO"/><use transform="matrix(0.05,0,0,0.05,12,0)" xlink:href="#aZ"/><use transform="matrix(0.05,0,0,0.05,22.950000000000003,0)" xlink:href="#ba"/><use transform="matrix(0.05,0,0,0.05,34.95,0)" xlink:href="#bb"/><use transform="matrix(0.05,0,0,0.05,46.95,0)" xlink:href="#aV"/><use transform="matrix(0.05,0,0,0.05,52.900000000000006,0)" xlink:href="#aJ"/><use transform="matrix(0.05,0,0,0.05,66.9,0)" xlink:href="#aU"/><use transform="matrix(0.05,0,0,0.05,83.85000000000001,0)" xlink:href="#aS"/></g><g id="m"><use transform="matrix(0.05,0,0,0.05,0,0)" xlink:href="#aY"/><use transform="matrix(0.05,0,0,0.05,12,0)" xlink:href="#bb"/><use transform="matrix(0.05,0,0,0.05,24,0)" xlink:href="#aR"/></g><path d="M103-251c84 0 111 97 45 133-19 10-37 24-39 52H78c0-63 77-55 77-114 0-30-21-42-52-43-32 0-53 17-56 46l-32-2c7-45 34-72 88-72zM77 0v-35h34V0H77" id="bd"/><g id="n"><use transform="matrix(0.05,0,0,0.05,0,0)" xlink:href="#aN"/><use transform="matrix(0.05,0,0,0.05,5.95,0)" xlink:href="#bd"/><use transform="matrix(0.05,0,0,0.05,15.949999999999998,0)" xlink:href="#aP"/></g><path d="M27 0v-27h64v-190l-56 39v-29l58-41h29v221h61V0H27" id="be"/><path d="M101-251c82-7 93 87 43 132L82-64C71-53 59-42 53-27h129V0H18c2-99 128-94 128-182 0-28-16-43-45-43s-46 15-49 41l-32-3c6-41 34-60 81-64" id="bf"/><g id="o"><use transform="matrix(0.05,0,0,0.05,0,0)" xlink:href="#ba"/><use transform="matrix(0.05,0,0,0.05,12,0)" xlink:href="#be"/><use transform="matrix(0.05,0,0,0.05,22,0)" xlink:href="#bf"/></g><path d="M143 4C61 4 22-44 18-125c-5-107 100-154 193-111 17 8 29 25 37 43l-32 9c-13-25-37-40-76-40-61 0-88 39-88 99 0 61 29 100 91 101 35 0 62-11 79-27v-45h-74v-28h105v86C228-13 192 4 143 4" id="bg"/><g id="p"><use transform="matrix(0.05,0,0,0.05,0,0)" xlink:href="#aJ"/><use transform="matrix(0.05,0,0,0.05,14,0)" xlink:href="#aI"/><use transform="matrix(0.05,0,0,0.05,28.950000000000003,0)" xlink:href="#bg"/></g><path d="M160-131c35 5 61 23 61 61C221 17 115-2 30 0v-248c76 3 177-17 177 60 0 33-19 50-47 57zm-97-11c50-1 110 9 110-42 0-47-63-36-110-37v79zm0 115c55-2 124 14 124-45 0-56-70-42-124-44v89" id="bh"/><path d="M24-231v-30h32v30H24zM24 0v-190h32V0H24" id="bi"/><g id="q"><use transform="matrix(0.05,0,0,0.05,0,0)" xlink:href="#bh"/><use transform="matrix(0.05,0,0,0.05,12,0)" xlink:href="#aO"/><use transform="matrix(0.05,0,0,0.05,24,0)" xlink:href="#bi"/></g><g id="r"><use transform="matrix(0.05,0,0,0.05,0,0)" xlink:href="#aU"/><use transform="matrix(0.05,0,0,0.05,16.95,0)" xlink:href="#bc"/><use transform="matrix(0.05,0,0,0.05,26.950000000000003,0)" xlink:href="#aX"/></g><g id="s"><use transform="matrix(0.05,0,0,0.05,0,0)" xlink:href="#aO"/><use transform="matrix(0.05,0,0,0.05,12,0)" xlink:href="#aZ"/><use transform="matrix(0.05,0,0,0.05,22.950000000000003,0)" xlink:href="#ba"/><use transform="matrix(0.05,0,0,0.05,34.95,0)" xlink:href="#bb"/></g><path d="M100-194c62-1 85 37 85 99 1 63-27 99-86 99S16-35 15-95c0-66 28-99 85-99zM99-20c44 1 53-31 53-75 0-43-8-75-51-75s-53 32-53 75 10 74 51 75" id="bj"/><path d="M114-163C36-179 61-72 57 0H25l-1-190h30c1 12-1 29 2 39 6-27 23-49 58-41v29" id="bk"/><g id="t"><use transform="matrix(0.05,0,0,0.05,0,0)" xlink:href="#bj"/><use transform="matrix(0.05,0,0,0.05,10,0)" xlink:href="#bk"/></g><g id="u"><use transform="matrix(0.05,0,0,0.05,0,0)" xlink:href="#aW"/><use transform="matrix(0.05,0,0,0.05,5,0)" xlink:href="#aO"/><use transform="matrix(0.05,0,0,0.05,17,0)" xlink:href="#aJ"/></g><path d="M117-194c89-4 53 116 60 194h-32v-121c0-31-8-49-39-48C34-167 62-67 57 0H25l-1-190h30c1 10-1 24 2 32 11-22 29-35 61-36" id="bl"/><path d="M101-234c-31-9-42 10-38 44h38v23H63V0H32v-167H5v-23h27c-7-52 17-82 69-68v24" id="bm"/><path d="M210-169c-67 3-38 105-44 169h-31v-121c0-29-5-50-35-48C34-165 62-65 56 0H25l-1-190h30c1 10-1 24 2 32 10-44 99-50 107 0 11-21 27-35 58-36 85-2 47 119 55 194h-31v-121c0-29-5-49-35-48" id="bn"/><g id="v"><use transform="matrix(0.05,0,0,0.05,0,0)" xlink:href="#aX"/><use transform="matrix(0.05,0,0,0.05,12.950000000000001,0)" xlink:href="#bj"/><use transform="matrix(0.05,0,0,0.05,22.950000000000003,0)" xlink:href="#bl"/><use transform="matrix(0.05,0,0,0.05,32.95,0)" xlink:href="#bm"/><use transform="matrix(0.05,0,0,0.05,37.95,0)" xlink:href="#bj"/><use transform="matrix(0.05,0,0,0.05,47.95,0)" xlink:href="#bk"/><use transform="matrix(0.05,0,0,0.05,53.900000000000006,0)" xlink:href="#bn"/><use transform="matrix(0.05,0,0,0.05,68.85000000000001,0)" xlink:href="#aR"/></g><g id="w"><use transform="matrix(0.05,0,0,0.05,0,0)" xlink:href="#aZ"/><use transform="matrix(0.05,0,0,0.05,8.950000000000001,0)" xlink:href="#bj"/></g><path d="M141-36C126-15 110 5 73 4 37 3 15-17 15-53c-1-64 63-63 125-63 3-35-9-54-41-54-24 1-41 7-42 31l-33-3c5-37 33-52 76-52 45 0 72 20 72 64v82c-1 20 7 32 28 27v20c-31 9-61-2-59-35zM48-53c0 20 12 33 32 33 41-3 63-29 60-74-43 2-92-5-92 41" id="bo"/><path d="M115-194c55 1 70 41 70 98S169 2 115 4C84 4 66-9 55-30l1 105H24l-1-265h31l2 30c10-21 28-34 59-34zm-8 174c40 0 45-34 45-75s-6-73-45-74c-42 0-51 32-51 76 0 43 10 73 51 73" id="bp"/><g id="x"><use transform="matrix(0.05,0,0,0.05,0,0)" xlink:href="#aI"/><use transform="matrix(0.05,0,0,0.05,14.950000000000001,0)" xlink:href="#bo"/><use transform="matrix(0.05,0,0,0.05,24.950000000000003,0)" xlink:href="#bp"/><use transform="matrix(0.05,0,0,0.05,34.95,0)" xlink:href="#aR"/></g><path d="M85-194c31 0 48 13 60 33l-1-100h32l1 261h-30c-2-10 0-23-3-31C134-8 116 4 85 4 32 4 16-35 15-94c0-66 23-100 70-100zm9 24c-40 0-46 34-46 75 0 40 6 74 45 74 42 0 51-32 51-76 0-42-9-74-50-73" id="bq"/><path d="M100-194c63 0 86 42 84 106H49c0 40 14 67 53 68 26 1 43-12 49-29l28 8c-11 28-37 45-77 45C44 4 14-33 15-96c1-61 26-98 85-98zm52 81c6-60-76-77-97-28-3 7-6 17-6 28h103" id="br"/><path d="M24 0v-261h32V0H24" id="bs"/><g id="y"><use transform="matrix(0.07407407407407408,0,0,0.07407407407407408,0,0)" xlink:href="#aI"/><use transform="matrix(0.07407407407407408,0,0,0.07407407407407408,22.148148148148152,0)" xlink:href="#bj"/><use transform="matrix(0.07407407407407408,0,0,0.07407407407407408,36.96296296296297,0)" xlink:href="#bq"/><use transform="matrix(0.07407407407407408,0,0,0.07407407407407408,51.777777777777786,0)" xlink:href="#br"/><use transform="matrix(0.07407407407407408,0,0,0.07407407407407408,66.59259259259261,0)" xlink:href="#bs"/></g><path d="M108 0H70L1-190h34L89-25l56-165h34" id="bt"/><g id="z"><use transform="matrix(0.07407407407407408,0,0,0.07407407407407408,0,0)" xlink:href="#aS"/><use transform="matrix(0.07407407407407408,0,0,0.07407407407407408,14.814814814814817,0)" xlink:href="#br"/><use transform="matrix(0.07407407407407408,0,0,0.07407407407407408,29.629629629629633,0)" xlink:href="#bt"/><use transform="matrix(0.07407407407407408,0,0,0.07407407407407408,42.96296296296297,0)" xlink:href="#br"/><use transform="matrix(0.07407407407407408,0,0,0.07407407407407408,57.777777777777786,0)" xlink:href="#bs"/></g><use transform="matrix(0.07407407407407408,0,0,0.07407407407407408,0,0)" xlink:href="#bc" id="A"/><use transform="matrix(0.07407407407407408,0,0,0.07407407407407408,0,0)" xlink:href="#bf" id="B"/><use transform="matrix(0.07407407407407408,0,0,0.07407407407407408,0,0)" xlink:href="#be" id="C"/><path d="M101-251c68 0 85 55 85 127S166 4 100 4C33 4 14-52 14-124c0-73 17-127 87-127zm-1 229c47 0 54-49 54-102s-4-102-53-102c-51 0-55 48-55 102 0 53 5 102 54 102" id="bu"/><use transform="matrix(0.07407407407407408,0,0,0.07407407407407408,0,0)" xlink:href="#bu" id="D"/><path fill-opacity=".1" d="M210-169c-67 3-38 105-44 169h-31v-121c0-29-5-50-35-48C34-165 62-65 56 0H25l-1-190h30c1 10-1 24 2 32 10-44 99-50 107 0 11-21 27-35 58-36 85-2 47 119 55 194h-31v-121c0-29-5-49-35-48" id="bv"/><path fill-opacity=".1" d="M100-194c63 0 86 42 84 106H49c0 40 14 67 53 68 26 1 43-12 49-29l28 8c-11 28-37 45-77 45C44 4 14-33 15-96c1-61 26-98 85-98zm52 81c6-60-76-77-97-28-3 7-6 17-6 28h103" id="bw"/><path fill-opacity=".1" d="M59-47c-2 24 18 29 38 22v24C64 9 27 4 27-40v-127H5v-23h24l9-43h21v43h35v23H59v120" id="bx"/><path fill-opacity=".1" d="M141-36C126-15 110 5 73 4 37 3 15-17 15-53c-1-64 63-63 125-63 3-35-9-54-41-54-24 1-41 7-42 31l-33-3c5-37 33-52 76-52 45 0 72 20 72 64v82c-1 20 7 32 28 27v20c-31 9-61-2-59-35zM48-53c0 20 12 33 32 33 41-3 63-29 60-74-43 2-92-5-92 41" id="by"/><path fill-opacity=".1" d="M16-82v-28h88v28H16" id="bz"/><g id="E"><use transform="matrix(0.05,0,0,0.05,0,0)" xlink:href="#bv"/><use transform="matrix(0.05,0,0,0.05,14.950000000000001,0)" xlink:href="#bw"/><use transform="matrix(0.05,0,0,0.05,24.950000000000003,0)" xlink:href="#bx"/><use transform="matrix(0.05,0,0,0.05,29.950000000000003,0)" xlink:href="#by"/><use transform="matrix(0.05,0,0,0.05,39.95,0)" xlink:href="#bz"/></g><path fill-opacity=".1" d="M30 0v-248h187v28H63v79h144v27H63v87h162V0H30" id="bA"/><path fill-opacity=".1" d="M195 0l-74-108L45 0H8l94-129-87-119h37l69 98 67-98h37l-84 118L233 0h-38" id="bB"/><path fill-opacity=".1" d="M30-248c87 1 191-15 191 75 0 78-77 80-158 76V0H30v-248zm33 125c57 0 124 11 124-50 0-59-68-47-124-48v98" id="bC"/><path fill-opacity=".1" d="M233-177c-1 41-23 64-60 70L243 0h-38l-65-103H63V0H30v-248c88 3 205-21 203 71zM63-129c60-2 137 13 137-47 0-61-80-42-137-45v92" id="bD"/><path fill-opacity=".1" d="M185-189c-5-48-123-54-124 2 14 75 158 14 163 119 3 78-121 87-175 55-17-10-28-26-33-46l33-7c5 56 141 63 141-1 0-78-155-14-162-118-5-82 145-84 179-34 5 7 8 16 11 25" id="bE"/><g id="F"><use transform="matrix(0.05,0,0,0.05,0,0)" xlink:href="#bA"/><use transform="matrix(0.05,0,0,0.05,12,0)" xlink:href="#bB"/><use transform="matrix(0.05,0,0,0.05,24,0)" xlink:href="#bC"/><use transform="matrix(0.05,0,0,0.05,36,0)" xlink:href="#bD"/><use transform="matrix(0.05,0,0,0.05,48.95,0)" xlink:href="#bA"/><use transform="matrix(0.05,0,0,0.05,60.95,0)" xlink:href="#bE"/><use transform="matrix(0.05,0,0,0.05,72.95,0)" xlink:href="#bE"/></g><g id="G"><use transform="matrix(0.05,0,0,0.05,0,0)" xlink:href="#bA"/><use transform="matrix(0.05,0,0,0.05,12,0)" xlink:href="#bB"/><use transform="matrix(0.05,0,0,0.05,24,0)" xlink:href="#bC"/><use transform="matrix(0.05,0,0,0.05,36,0)" xlink:href="#bD"/><use transform="matrix(0.05,0,0,0.05,48.95,0)" xlink:href="#bA"/><use transform="matrix(0.05,0,0,0.05,60.95,0)" xlink:href="#bE"/><use transform="matrix(0.05,0,0,0.05,72.95,0)" xlink:href="#bE"/></g><path fill-opacity=".1" d="M33 0v-248h34V0H33" id="bF"/><path fill-opacity=".1" d="M63-220v92h138v28H63V0H30v-248h175v28H63" id="bG"/><path fill-opacity=".1" d="M212-179c-10-28-35-45-73-45-59 0-87 40-87 99 0 60 29 101 89 101 43 0 62-24 78-52l27 14C228-24 195 4 139 4 59 4 22-46 18-125c-6-104 99-153 187-111 19 9 31 26 39 46" id="bH"/><g id="H"><use transform="matrix(0.05,0,0,0.05,0,0)" xlink:href="#bF"/><use transform="matrix(0.05,0,0,0.05,5,0)" xlink:href="#bG"/><use transform="matrix(0.05,0,0,0.05,15.950000000000001,0)" xlink:href="#bH"/><use transform="matrix(0.05,0,0,0.05,28.900000000000002,0)" xlink:href="#bz"/><use transform="matrix(0.05,0,0,0.05,34.85,0)" xlink:href="#bA"/><use transform="matrix(0.05,0,0,0.05,46.85,0)" xlink:href="#bB"/><use transform="matrix(0.05,0,0,0.05,58.85,0)" xlink:href="#bC"/></g><path fill-opacity=".1" d="M127-220V0H93v-220H8v-28h204v28h-85" id="bI"/><g id="I"><use transform="matrix(0.05,0,0,0.05,0,0)" xlink:href="#bE"/><use transform="matrix(0.05,0,0,0.05,12,0)" xlink:href="#bI"/><use transform="matrix(0.05,0,0,0.05,22.950000000000003,0)" xlink:href="#bA"/><use transform="matrix(0.05,0,0,0.05,34.95,0)" xlink:href="#bC"/></g><path fill-opacity=".1" d="M205 0l-28-72H64L36 0H1l101-248h38L239 0h-34zm-38-99l-47-123c-12 45-31 82-46 123h93" id="bJ"/><path fill-opacity=".1" d="M135-143c-3-34-86-38-87 0 15 53 115 12 119 90S17 21 10-45l28-5c4 36 97 45 98 0-10-56-113-15-118-90-4-57 82-63 122-42 12 7 21 19 24 35" id="bK"/><g id="J"><use transform="matrix(0.05,0,0,0.05,0,0)" xlink:href="#bJ"/><use transform="matrix(0.05,0,0,0.05,12,0)" xlink:href="#bC"/><use transform="matrix(0.05,0,0,0.05,24,0)" xlink:href="#bK"/></g><path fill-opacity=".1" d="M87 75C49 33 22-17 22-94c0-76 28-126 65-167h31c-38 41-64 92-64 168S80 34 118 75H87" id="bL"/><path fill-opacity=".1" d="M24 0v-261h32V0H24" id="bM"/><path fill-opacity=".1" d="M177-190C167-65 218 103 67 71c-23-6-38-20-44-43l32-5c15 47 100 32 89-28v-30C133-14 115 1 83 1 29 1 15-40 15-95c0-56 16-97 71-98 29-1 48 16 59 35 1-10 0-23 2-32h30zM94-22c36 0 50-32 50-73 0-42-14-75-50-75-39 0-46 34-46 75s6 73 46 73" id="bN"/><path fill-opacity=".1" d="M96-169c-40 0-48 33-48 73s9 75 48 75c24 0 41-14 43-38l32 2c-6 37-31 61-74 61-59 0-76-41-82-99-10-93 101-131 147-64 4 7 5 14 7 22l-32 3c-4-21-16-35-41-35" id="bO"/><path fill-opacity=".1" d="M179-190L93 31C79 59 56 82 12 73V49c39 6 53-20 64-50L1-190h34L92-34l54-156h33" id="bP"/><path fill-opacity=".1" d="M33-261c38 41 65 92 65 168S71 34 33 75H2C39 34 66-17 66-93S39-220 2-261h31" id="bQ"/><g id="K"><use transform="matrix(0.05,0,0,0.05,0,0)" xlink:href="#bL"/><use transform="matrix(0.05,0,0,0.05,5.95,0)" xlink:href="#bM"/><use transform="matrix(0.05,0,0,0.05,9.9,0)" xlink:href="#bw"/><use transform="matrix(0.05,0,0,0.05,19.9,0)" xlink:href="#bN"/><use transform="matrix(0.05,0,0,0.05,29.899999999999995,0)" xlink:href="#by"/><use transform="matrix(0.05,0,0,0.05,39.9,0)" xlink:href="#bO"/><use transform="matrix(0.05,0,0,0.05,48.9,0)" xlink:href="#bP"/><use transform="matrix(0.05,0,0,0.05,57.900000000000006,0)" xlink:href="#bQ"/></g><path fill-opacity=".1" d="M30-248c118-7 216 8 213 122C240-48 200 0 122 0H30v-248zM63-27c89 8 146-16 146-99s-60-101-146-95v194" id="bR"/><path fill-opacity=".1" d="M100-194c62-1 85 37 85 99 1 63-27 99-86 99S16-35 15-95c0-66 28-99 85-99zM99-20c44 1 53-31 53-75 0-43-8-75-51-75s-53 32-53 75 10 74 51 75" id="bS"/><g id="L"><use transform="matrix(0.05,0,0,0.05,0,0)" xlink:href="#bF"/><use transform="matrix(0.05,0,0,0.05,5,0)" xlink:href="#bG"/><use transform="matrix(0.05,0,0,0.05,15.950000000000001,0)" xlink:href="#bH"/><use transform="matrix(0.05,0,0,0.05,28.900000000000002,0)" xlink:href="#bR"/><use transform="matrix(0.05,0,0,0.05,41.85,0)" xlink:href="#bS"/><use transform="matrix(0.05,0,0,0.05,51.85,0)" xlink:href="#bO"/><use transform="matrix(0.05,0,0,0.05,60.85,0)" xlink:href="#bK"/></g><path fill-opacity=".1" d="M110-160c48 1 74 30 74 79 0 53-28 85-80 85-65 0-83-55-86-122-5-90 50-162 133-122 14 7 22 21 27 39l-31 6c-5-40-67-38-82-6-9 19-15 44-15 74 11-20 30-34 60-33zm-7 138c34 0 49-23 49-58s-16-56-50-56c-29 0-50 16-49 49 1 36 15 65 50 65" id="bT"/><g id="M"><use transform="matrix(0.05,0,0,0.05,0,0)" xlink:href="#bA"/><use transform="matrix(0.05,0,0,0.05,12,0)" xlink:href="#bT"/></g><path fill-opacity=".1" d="M99-251c64 0 84 50 84 122C183-37 130 33 47-8c-14-7-20-23-25-40l30-5c6 39 69 39 84 7 9-19 16-44 16-74-10 22-31 35-62 35-49 0-73-33-73-83 0-54 28-83 82-83zm-1 141c31-1 51-18 51-49 0-36-14-67-51-67-34 0-49 23-49 58 0 34 15 58 49 58" id="bU"/><g id="N"><use transform="matrix(0.05,0,0,0.05,0,0)" xlink:href="#bA"/><use transform="matrix(0.05,0,0,0.05,12,0)" xlink:href="#bU"/></g><path fill-opacity=".1" d="M27 0v-27h64v-190l-56 39v-29l58-41h29v221h61V0H27" id="bV"/><g id="O"><use transform="matrix(0.05,0,0,0.05,0,0)" xlink:href="#bA"/><use transform="matrix(0.05,0,0,0.05,12,0)" xlink:href="#bV"/><use transform="matrix(0.05,0,0,0.05,20.65,0)" xlink:href="#bV"/></g><path d="M155-56V0h-30v-56H8v-25l114-167h33v167h35v25h-35zm-30-156c-27 46-58 90-88 131h88v-131" id="bW"/><g id="P"><use transform="matrix(0.05,0,0,0.05,0,0)" xlink:href="#ba"/><use transform="matrix(0.05,0,0,0.05,12,0)" xlink:href="#bW"/></g><path fill-opacity=".2" d="M30 0v-248h187v28H63v79h144v27H63v87h162V0H30" id="bX"/><path fill-opacity=".2" d="M134-131c28 9 52 24 51 62-1 50-34 73-85 73S17-19 16-69c0-36 21-54 49-61-75-25-45-126 34-121 46 3 78 18 79 63 0 33-17 51-44 57zm-34-11c31 1 46-15 46-44 0-28-17-43-47-42-29 0-46 13-45 42 1 28 16 44 46 44zm1 122c35 0 51-18 51-52 0-30-18-46-53-46-33 0-51 17-51 47 0 34 19 51 53 51" id="bY"/><g id="Q"><use transform="matrix(0.05,0,0,0.05,0,0)" xlink:href="#bX"/><use transform="matrix(0.05,0,0,0.05,12,0)" xlink:href="#bY"/></g><path d="M80-196l47-18 7 23-49 13 32 44-20 13-27-46-27 45-21-12 33-44-49-13 8-23 47 19-2-53h23" id="bZ"/><g id="R"><use transform="matrix(0.05,0,0,0.05,0,0)" xlink:href="#ba"/><use transform="matrix(0.05,0,0,0.05,12,0)" xlink:href="#be"/><use transform="matrix(0.05,0,0,0.05,22,0)" xlink:href="#bc"/><use transform="matrix(0.05,0,0,0.05,32,0)" xlink:href="#bZ"/></g><path fill-opacity=".1" d="M240 0l2-218c-23 76-54 145-80 218h-23L58-218 59 0H30v-248h44l77 211c21-75 51-140 76-211h43V0h-30" id="ca"/><path fill-opacity=".1" d="M30 0v-248h33v221h125V0H30" id="cb"/><g id="S"><use transform="matrix(0.05,0,0,0.05,0,0)" xlink:href="#bB"/><use transform="matrix(0.05,0,0,0.05,12,0)" xlink:href="#ca"/><use transform="matrix(0.05,0,0,0.05,26.950000000000003,0)" xlink:href="#cb"/></g><path fill-opacity=".1" d="M85-194c31 0 48 13 60 33l-1-100h32l1 261h-30c-2-10 0-23-3-31C134-8 116 4 85 4 32 4 16-35 15-94c0-66 23-100 70-100zm9 24c-40 0-46 34-46 75 0 40 6 74 45 74 42 0 51-32 51-76 0-42-9-74-50-73" id="cc"/><g id="T"><use transform="matrix(0.05,0,0,0.05,0,0)" xlink:href="#bE"/><use transform="matrix(0.05,0,0,0.05,12,0)" xlink:href="#bI"/><use transform="matrix(0.05,0,0,0.05,22.950000000000003,0)" xlink:href="#bA"/><use transform="matrix(0.05,0,0,0.05,34.95,0)" xlink:href="#bC"/><use transform="matrix(0.05,0,0,0.05,46.95,0)" xlink:href="#bv"/><use transform="matrix(0.05,0,0,0.05,61.900000000000006,0)" xlink:href="#bS"/><use transform="matrix(0.05,0,0,0.05,71.9,0)" xlink:href="#cc"/></g><g id="U"><use transform="matrix(0.05,0,0,0.05,0,0)" xlink:href="#bR"/><use transform="matrix(0.05,0,0,0.05,12.950000000000001,0)" xlink:href="#bI"/><use transform="matrix(0.05,0,0,0.05,23.900000000000002,0)" xlink:href="#bR"/></g><g id="V"><use transform="matrix(0.05,0,0,0.05,0,0)" xlink:href="#bF"/><use transform="matrix(0.05,0,0,0.05,5,0)" xlink:href="#bG"/><use transform="matrix(0.05,0,0,0.05,15.950000000000001,0)" xlink:href="#bH"/><use transform="matrix(0.05,0,0,0.05,28.900000000000002,0)" xlink:href="#bz"/><use transform="matrix(0.05,0,0,0.05,34.85,0)" xlink:href="#bB"/><use transform="matrix(0.05,0,0,0.05,46.85,0)" xlink:href="#ca"/><use transform="matrix(0.05,0,0,0.05,61.800000000000004,0)" xlink:href="#cb"/></g><g id="W"><use transform="matrix(0.05,0,0,0.05,0,0)" xlink:href="#bF"/><use transform="matrix(0.05,0,0,0.05,5,0)" xlink:href="#bG"/><use transform="matrix(0.05,0,0,0.05,15.950000000000001,0)" xlink:href="#bH"/><use transform="matrix(0.05,0,0,0.05,28.900000000000002,0)" xlink:href="#bB"/><use transform="matrix(0.05,0,0,0.05,40.900000000000006,0)" xlink:href="#ca"/><use transform="matrix(0.05,0,0,0.05,55.85,0)" xlink:href="#cb"/></g><g id="X"><use transform="matrix(0.05,0,0,0.05,0,0)" xlink:href="#bB"/><use transform="matrix(0.05,0,0,0.05,12,0)" xlink:href="#bE"/><use transform="matrix(0.05,0,0,0.05,24,0)" xlink:href="#bR"/></g><g id="Y"><use transform="matrix(0.05,0,0,0.05,0,0)" xlink:href="#bE"/><use transform="matrix(0.05,0,0,0.05,12,0)" xlink:href="#bI"/><use transform="matrix(0.05,0,0,0.05,22.950000000000003,0)" xlink:href="#bA"/><use transform="matrix(0.05,0,0,0.05,34.95,0)" xlink:href="#bC"/><use transform="matrix(0.05,0,0,0.05,46.95,0)" xlink:href="#bv"/><use transform="matrix(0.05,0,0,0.05,61.900000000000006,0)" xlink:href="#bS"/><use transform="matrix(0.05,0,0,0.05,71.9,0)" xlink:href="#cc"/></g><g id="Z"><use transform="matrix(0.05,0,0,0.05,0,0)" xlink:href="#bB"/><use transform="matrix(0.05,0,0,0.05,12,0)" xlink:href="#ca"/><use transform="matrix(0.05,0,0,0.05,26.950000000000003,0)" xlink:href="#cb"/></g><path fill-opacity=".1" d="M64 0c3-98 48-159 88-221H18v-27h164v26C143-157 98-101 97 0H64" id="cd"/><g id="aa"><use transform="matrix(0.05,0,0,0.05,0,0)" xlink:href="#bA"/><use transform="matrix(0.05,0,0,0.05,12,0)" xlink:href="#cd"/></g><g id="ab"><use transform="matrix(0.05,0,0,0.05,0,0)" xlink:href="#bA"/><use transform="matrix(0.05,0,0,0.05,12,0)" xlink:href="#bV"/></g><path fill-opacity=".1" d="M54-142c48-35 137-8 131 61C196 18 31 33 14-55l32-4c7 23 22 37 52 37 35-1 51-22 54-58 4-55-73-65-99-34H22l8-134h141v27H59" id="ce"/><g id="ac"><use transform="matrix(0.05,0,0,0.05,0,0)" xlink:href="#bA"/><use transform="matrix(0.05,0,0,0.05,12,0)" xlink:href="#ce"/></g><path fill-opacity=".1" d="M101-251c82-7 93 87 43 132L82-64C71-53 59-42 53-27h129V0H18c2-99 128-94 128-182 0-28-16-43-45-43s-46 15-49 41l-32-3c6-41 34-60 81-64" id="cf"/><g id="ad"><use transform="matrix(0.05,0,0,0.05,0,0)" xlink:href="#bA"/><use transform="matrix(0.05,0,0,0.05,12,0)" xlink:href="#cf"/></g><path fill-opacity=".1" d="M101-251c68 0 85 55 85 127S166 4 100 4C33 4 14-52 14-124c0-73 17-127 87-127zm-1 229c47 0 54-49 54-102s-4-102-53-102c-51 0-55 48-55 102 0 53 5 102 54 102" id="cg"/><g id="ae"><use transform="matrix(0.05,0,0,0.05,0,0)" xlink:href="#bA"/><use transform="matrix(0.05,0,0,0.05,12,0)" xlink:href="#bV"/><use transform="matrix(0.05,0,0,0.05,22,0)" xlink:href="#cg"/></g><g id="af"><use transform="matrix(0.05,0,0,0.05,0,0)" xlink:href="#aW"/><use transform="matrix(0.05,0,0,0.05,5,0)" xlink:href="#aK"/><use transform="matrix(0.05,0,0,0.05,15.950000000000001,0)" xlink:href="#aX"/></g><g id="ag"><use transform="matrix(0.05,0,0,0.05,0,0)" xlink:href="#aT"/><use transform="matrix(0.05,0,0,0.05,12.950000000000001,0)" xlink:href="#aI"/><use transform="matrix(0.05,0,0,0.05,27.900000000000002,0)" xlink:href="#aS"/></g><g id="ah"><use transform="matrix(0.05,0,0,0.05,0,0)" xlink:href="#bb"/><use transform="matrix(0.05,0,0,0.05,12,0)" xlink:href="#bk"/><use transform="matrix(0.05,0,0,0.05,17.95,0)" xlink:href="#bj"/><use transform="matrix(0.05,0,0,0.05,27.950000000000003,0)" xlink:href="#bm"/><use transform="matrix(0.05,0,0,0.05,32.95,0)" xlink:href="#bi"/><use transform="matrix(0.05,0,0,0.05,36.900000000000006,0)" xlink:href="#bs"/><use transform="matrix(0.05,0,0,0.05,40.85000000000001,0)" xlink:href="#br"/></g><path d="M59-47c-2 24 18 29 38 22v24C64 9 27 4 27-40v-127H5v-23h24l9-43h21v43h35v23H59v120" id="ch"/><g id="ai"><use transform="matrix(0.05,0,0,0.05,0,0)" xlink:href="#bn"/><use transform="matrix(0.05,0,0,0.05,14.950000000000001,0)" xlink:href="#br"/><use transform="matrix(0.05,0,0,0.05,24.950000000000003,0)" xlink:href="#ch"/><use transform="matrix(0.05,0,0,0.05,29.950000000000003,0)" xlink:href="#bo"/><use transform="matrix(0.05,0,0,0.05,39.95,0)" xlink:href="#aV"/></g><path d="M195 0l-74-108L45 0H8l94-129-87-119h37l69 98 67-98h37l-84 118L233 0h-38" id="ci"/><g id="aj"><use transform="matrix(0.05,0,0,0.05,0,0)" xlink:href="#ba"/><use transform="matrix(0.05,0,0,0.05,12,0)" xlink:href="#ci"/><use transform="matrix(0.05,0,0,0.05,24,0)" xlink:href="#bb"/><use transform="matrix(0.05,0,0,0.05,36,0)" xlink:href="#aL"/><use transform="matrix(0.05,0,0,0.05,48.95,0)" xlink:href="#ba"/><use transform="matrix(0.05,0,0,0.05,60.95,0)" xlink:href="#aO"/><use transform="matrix(0.05,0,0,0.05,72.95,0)" xlink:href="#aO"/></g><g id="ak"><use transform="matrix(0.05,0,0,0.05,0,0)" xlink:href="#ba"/><use transform="matrix(0.05,0,0,0.05,12,0)" xlink:href="#ci"/><use transform="matrix(0.05,0,0,0.05,24,0)" xlink:href="#bb"/><use transform="matrix(0.05,0,0,0.05,36,0)" xlink:href="#aL"/><use transform="matrix(0.05,0,0,0.05,48.95,0)" xlink:href="#ba"/><use transform="matrix(0.05,0,0,0.05,60.95,0)" xlink:href="#aO"/><use transform="matrix(0.05,0,0,0.05,72.95,0)" xlink:href="#aO"/></g><g id="al"><use transform="matrix(0.05,0,0,0.05,0,0)" xlink:href="#aW"/><use transform="matrix(0.05,0,0,0.05,5,0)" xlink:href="#aK"/><use transform="matrix(0.05,0,0,0.05,15.950000000000001,0)" xlink:href="#aX"/><use transform="matrix(0.05,0,0,0.05,28.900000000000002,0)" xlink:href="#aV"/><use transform="matrix(0.05,0,0,0.05,34.85,0)" xlink:href="#ba"/><use transform="matrix(0.05,0,0,0.05,46.85,0)" xlink:href="#ci"/><use transform="matrix(0.05,0,0,0.05,58.85,0)" xlink:href="#bb"/></g><g id="am"><use transform="matrix(0.05,0,0,0.05,0,0)" xlink:href="#aY"/><use transform="matrix(0.05,0,0,0.05,12,0)" xlink:href="#bb"/><use transform="matrix(0.05,0,0,0.05,24,0)" xlink:href="#aR"/></g><path d="M177-190C167-65 218 103 67 71c-23-6-38-20-44-43l32-5c15 47 100 32 89-28v-30C133-14 115 1 83 1 29 1 15-40 15-95c0-56 16-97 71-98 29-1 48 16 59 35 1-10 0-23 2-32h30zM94-22c36 0 50-32 50-73 0-42-14-75-50-75-39 0-46 34-46 75s6 73 46 73" id="cj"/><path d="M96-169c-40 0-48 33-48 73s9 75 48 75c24 0 41-14 43-38l32 2c-6 37-31 61-74 61-59 0-76-41-82-99-10-93 101-131 147-64 4 7 5 14 7 22l-32 3c-4-21-16-35-41-35" id="ck"/><g id="an"><use transform="matrix(0.05,0,0,0.05,0,0)" xlink:href="#aN"/><use transform="matrix(0.05,0,0,0.05,5.95,0)" xlink:href="#bs"/><use transform="matrix(0.05,0,0,0.05,9.9,0)" xlink:href="#br"/><use transform="matrix(0.05,0,0,0.05,19.9,0)" xlink:href="#cj"/><use transform="matrix(0.05,0,0,0.05,29.899999999999995,0)" xlink:href="#bo"/><use transform="matrix(0.05,0,0,0.05,39.9,0)" xlink:href="#ck"/><use transform="matrix(0.05,0,0,0.05,48.9,0)" xlink:href="#aQ"/><use transform="matrix(0.05,0,0,0.05,57.900000000000006,0)" xlink:href="#aP"/></g><g id="ao"><use transform="matrix(0.05,0,0,0.05,0,0)" xlink:href="#aW"/><use transform="matrix(0.05,0,0,0.05,5,0)" xlink:href="#aK"/><use transform="matrix(0.05,0,0,0.05,15.950000000000001,0)" xlink:href="#aX"/><use transform="matrix(0.05,0,0,0.05,28.900000000000002,0)" xlink:href="#aM"/><use transform="matrix(0.05,0,0,0.05,41.85,0)" xlink:href="#bj"/><use transform="matrix(0.05,0,0,0.05,51.85,0)" xlink:href="#ck"/><use transform="matrix(0.05,0,0,0.05,60.85,0)" xlink:href="#aR"/></g><path d="M110-160c48 1 74 30 74 79 0 53-28 85-80 85-65 0-83-55-86-122-5-90 50-162 133-122 14 7 22 21 27 39l-31 6c-5-40-67-38-82-6-9 19-15 44-15 74 11-20 30-34 60-33zm-7 138c34 0 49-23 49-58s-16-56-50-56c-29 0-50 16-49 49 1 36 15 65 50 65" id="cl"/><g id="ap"><use transform="matrix(0.05,0,0,0.05,0,0)" xlink:href="#ba"/><use transform="matrix(0.05,0,0,0.05,12,0)" xlink:href="#cl"/></g><path d="M99-251c64 0 84 50 84 122C183-37 130 33 47-8c-14-7-20-23-25-40l30-5c6 39 69 39 84 7 9-19 16-44 16-74-10 22-31 35-62 35-49 0-73-33-73-83 0-54 28-83 82-83zm-1 141c31-1 51-18 51-49 0-36-14-67-51-67-34 0-49 23-49 58 0 34 15 58 49 58" id="cm"/><g id="aq"><use transform="matrix(0.05,0,0,0.05,0,0)" xlink:href="#ba"/><use transform="matrix(0.05,0,0,0.05,12,0)" xlink:href="#cm"/></g><g id="ar"><use transform="matrix(0.05,0,0,0.05,0,0)" xlink:href="#ba"/><use transform="matrix(0.05,0,0,0.05,12,0)" xlink:href="#be"/><use transform="matrix(0.05,0,0,0.05,20.65,0)" xlink:href="#be"/></g><g id="as"><use transform="matrix(0.05,0,0,0.05,0,0)" xlink:href="#ba"/><use transform="matrix(0.05,0,0,0.05,12,0)" xlink:href="#bW"/></g><path d="M134-131c28 9 52 24 51 62-1 50-34 73-85 73S17-19 16-69c0-36 21-54 49-61-75-25-45-126 34-121 46 3 78 18 79 63 0 33-17 51-44 57zm-34-11c31 1 46-15 46-44 0-28-17-43-47-42-29 0-46 13-45 42 1 28 16 44 46 44zm1 122c35 0 51-18 51-52 0-30-18-46-53-46-33 0-51 17-51 47 0 34 19 51 53 51" id="cn"/><g id="at"><use transform="matrix(0.05,0,0,0.05,0,0)" xlink:href="#ba"/><use transform="matrix(0.05,0,0,0.05,12,0)" xlink:href="#cn"/></g><g id="au"><use transform="matrix(0.05,0,0,0.05,0,0)" xlink:href="#ba"/><use transform="matrix(0.05,0,0,0.05,12,0)" xlink:href="#be"/><use transform="matrix(0.05,0,0,0.05,22,0)" xlink:href="#bc"/><use transform="matrix(0.05,0,0,0.05,32,0)" xlink:href="#bZ"/></g><g id="av"><use transform="matrix(0.05,0,0,0.05,0,0)" xlink:href="#ci"/><use transform="matrix(0.05,0,0,0.05,12,0)" xlink:href="#aI"/><use transform="matrix(0.05,0,0,0.05,26.950000000000003,0)" xlink:href="#aS"/></g><g id="aw"><use transform="matrix(0.05,0,0,0.05,0,0)" xlink:href="#aO"/><use transform="matrix(0.05,0,0,0.05,12,0)" xlink:href="#aZ"/><use transform="matrix(0.05,0,0,0.05,22.950000000000003,0)" xlink:href="#ba"/><use transform="matrix(0.05,0,0,0.05,34.95,0)" xlink:href="#bb"/><use transform="matrix(0.05,0,0,0.05,46.95,0)" xlink:href="#bn"/><use transform="matrix(0.05,0,0,0.05,61.900000000000006,0)" xlink:href="#bj"/><use transform="matrix(0.05,0,0,0.05,71.9,0)" xlink:href="#bq"/></g><g id="ax"><use transform="matrix(0.05,0,0,0.05,0,0)" xlink:href="#aM"/><use transform="matrix(0.05,0,0,0.05,12.950000000000001,0)" xlink:href="#aZ"/><use transform="matrix(0.05,0,0,0.05,23.900000000000002,0)" xlink:href="#aM"/></g><g id="ay"><use transform="matrix(0.05,0,0,0.05,0,0)" xlink:href="#aW"/><use transform="matrix(0.05,0,0,0.05,5,0)" xlink:href="#aK"/><use transform="matrix(0.05,0,0,0.05,15.950000000000001,0)" xlink:href="#aX"/><use transform="matrix(0.05,0,0,0.05,28.900000000000002,0)" xlink:href="#aV"/><use transform="matrix(0.05,0,0,0.05,34.85,0)" xlink:href="#ci"/><use transform="matrix(0.05,0,0,0.05,46.85,0)" xlink:href="#aI"/><use transform="matrix(0.05,0,0,0.05,61.800000000000004,0)" xlink:href="#aS"/></g><g id="az"><use transform="matrix(0.05,0,0,0.05,0,0)" xlink:href="#aW"/><use transform="matrix(0.05,0,0,0.05,5,0)" xlink:href="#aK"/><use transform="matrix(0.05,0,0,0.05,15.950000000000001,0)" xlink:href="#aX"/><use transform="matrix(0.05,0,0,0.05,28.900000000000002,0)" xlink:href="#ci"/><use transform="matrix(0.05,0,0,0.05,40.900000000000006,0)" xlink:href="#aI"/><use transform="matrix(0.05,0,0,0.05,55.85,0)" xlink:href="#aS"/></g><g id="aA"><use transform="matrix(0.05,0,0,0.05,0,0)" xlink:href="#ci"/><use transform="matrix(0.05,0,0,0.05,12,0)" xlink:href="#aO"/><use transform="matrix(0.05,0,0,0.05,24,0)" xlink:href="#aM"/></g><g id="aB"><use transform="matrix(0.05,0,0,0.05,0,0)" xlink:href="#aO"/><use transform="matrix(0.05,0,0,0.05,12,0)" xlink:href="#aZ"/><use transform="matrix(0.05,0,0,0.05,22.950000000000003,0)" xlink:href="#ba"/><use transform="matrix(0.05,0,0,0.05,34.95,0)" xlink:href="#bb"/><use transform="matrix(0.05,0,0,0.05,46.95,0)" xlink:href="#bn"/><use transform="matrix(0.05,0,0,0.05,61.900000000000006,0)" xlink:href="#bj"/><use transform="matrix(0.05,0,0,0.05,71.9,0)" xlink:href="#bq"/></g><g id="aC"><use transform="matrix(0.05,0,0,0.05,0,0)" xlink:href="#ci"/><use transform="matrix(0.05,0,0,0.05,12,0)" xlink:href="#aI"/><use transform="matrix(0.05,0,0,0.05,26.950000000000003,0)" xlink:href="#aS"/></g><path d="M64 0c3-98 48-159 88-221H18v-27h164v26C143-157 98-101 97 0H64" id="co"/><g id="aD"><use transform="matrix(0.05,0,0,0.05,0,0)" xlink:href="#ba"/><use transform="matrix(0.05,0,0,0.05,12,0)" xlink:href="#co"/></g><g id="aE"><use transform="matrix(0.05,0,0,0.05,0,0)" xlink:href="#ba"/><use transform="matrix(0.05,0,0,0.05,12,0)" xlink:href="#be"/></g><path d="M54-142c48-35 137-8 131 61C196 18 31 33 14-55l32-4c7 23 22 37 52 37 35-1 51-22 54-58 4-55-73-65-99-34H22l8-134h141v27H59" id="cp"/><g id="aF"><use transform="matrix(0.05,0,0,0.05,0,0)" xlink:href="#ba"/><use transform="matrix(0.05,0,0,0.05,12,0)" xlink:href="#cp"/></g><g id="aG"><use transform="matrix(0.05,0,0,0.05,0,0)" xlink:href="#ba"/><use transform="matrix(0.05,0,0,0.05,12,0)" xlink:href="#bf"/></g><g id="aH"><use transform="matrix(0.05,0,0,0.05,0,0)" xlink:href="#ba"/><use transform="matrix(0.05,0,0,0.05,12,0)" xlink:href="#be"/><use transform="matrix(0.05,0,0,0.05,22,0)" xlink:href="#bu"/></g></defs></g></svg>